{
	"asset":{
		"generator":"Khronos glTF Blender I/O v3.6.28",
		"version":"2.0"
	},
	"extensionsUsed":[
		"KHR_materials_specular",
		"KHR_materials_ior"
	],
	"scene":0,
	"scenes":[
		{
			"name":"Scene",
			"nodes":[
				0
			]
		}
	],
	"nodes":[
		{
			"mesh":0,
			"name":"Column_3",
			"rotation":[
				0,
				0.3826834559440613,
				0,
				0.9238795042037964
			]
		}
	],
	"materials":[
		{
			"doubleSided":true,
			"name":"Main",
			"pbrMetallicRoughness":{
				"baseColorFactor":[
					0.40196332335472107,
					0.40196332335472107,
					0.40196332335472107,
					1
				],
				"metallicFactor":0,
				"roughnessFactor":0.5
			}
		},
		{
			"doubleSided":true,
			"extensions":{
				"KHR_materials_specular":{
					"specularColorFactor":[
						0.6502109747566333,
						0.6502109747566333,
						0.6502109747566333
					]
				},
				"KHR_materials_ior":{
					"ior":1.4500000476837158
				}
			},
			"name":"Accent",
			"pbrMetallicRoughness":{
				"baseColorFactor":[
					1,
					0.5245004296302795,
					0.11315913498401642,
					1
				],
				"metallicFactor":0.5,
				"roughnessFactor":0.20967741310596466
			}
		},
		{
			"doubleSided":true,
			"name":"DarkGrey",
			"pbrMetallicRoughness":{
				"baseColorFactor":[
					0.23954731225967407,
					0.23954731225967407,
					0.23954731225967407,
					1
				],
				"metallicFactor":0,
				"roughnessFactor":0.5
			}
		}
	],
	"meshes":[
		{
			"name":"Plane.057",
			"primitives":[
				{
					"attributes":{
						"POSITION":0,
						"NORMAL":1
					},
					"indices":2,
					"material":0
				},
				{
					"attributes":{
						"POSITION":3,
						"NORMAL":4
					},
					"indices":5,
					"material":1
				},
				{
					"attributes":{
						"POSITION":6,
						"NORMAL":7
					},
					"indices":8,
					"material":2
				}
			]
		}
	],
	"accessors":[
		{
			"bufferView":0,
			"componentType":5126,
			"count":1029,
			"max":[
				0.48386651277542114,
				4.463406085968018,
				0.48333749175071716
			],
			"min":[
				-0.48386651277542114,
				0.12374622374773026,
				-0.48333749175071716
			],
			"type":"VEC3"
		},
		{
			"bufferView":1,
			"componentType":5126,
			"count":1029,
			"type":"VEC3"
		},
		{
			"bufferView":2,
			"componentType":5123,
			"count":1860,
			"type":"SCALAR"
		},
		{
			"bufferView":3,
			"componentType":5126,
			"count":128,
			"max":[
				0.4016662836074829,
				3.4307799339294434,
				0.4016498029232025
			],
			"min":[
				-0.4016662836074829,
				0.8111364841461182,
				-0.4016498029232025
			],
			"type":"VEC3"
		},
		{
			"bufferView":4,
			"componentType":5126,
			"count":128,
			"type":"VEC3"
		},
		{
			"bufferView":5,
			"componentType":5123,
			"count":240,
			"type":"SCALAR"
		},
		{
			"bufferView":6,
			"componentType":5126,
			"count":68,
			"max":[
				0.4502275884151459,
				0.12374622374773026,
				0.4502190351486206
			],
			"min":[
				-0.4502275884151459,
				0,
				-0.4502190351486206
			],
			"type":"VEC3"
		},
		{
			"bufferView":7,
			"componentType":5126,
			"count":68,
			"type":"VEC3"
		},
		{
			"bufferView":8,
			"componentType":5123,
			"count":174,
			"type":"SCALAR"
		}
	],
	"bufferViews":[
		{
			"buffer":0,
			"byteLength":12348,
			"byteOffset":0,
			"target":34962
		},
		{
			"buffer":0,
			"byteLength":12348,
			"byteOffset":12348,
			"target":34962
		},
		{
			"buffer":0,
			"byteLength":3720,
			"byteOffset":24696,
			"target":34963
		},
		{
			"buffer":0,
			"byteLength":1536,
			"byteOffset":28416,
			"target":34962
		},
		{
			"buffer":0,
			"byteLength":1536,
			"byteOffset":29952,
			"target":34962
		},
		{
			"buffer":0,
			"byteLength":480,
			"byteOffset":31488,
			"target":34963
		},
		{
			"buffer":0,
			"byteLength":816,
			"byteOffset":31968,
			"target":34962
		},
		{
			"buffer":0,
			"byteLength":816,
			"byteOffset":32784,
			"target":34962
		},
		{
			"buffer":0,
			"byteLength":348,
			"byteOffset":33600,
			"target":34963
		}
	],
	"buffers":[
		{
			"byteLength":33948,
			"uri":"data:application/octet-stream;base64,"
		}
	]
}
