{
	"asset":{
		"generator":"Khronos glTF Blender I/O v3.6.28",
		"version":"2.0"
	},
	"scene":0,
	"scenes":[
		{
			"name":"Scene",
			"nodes":[
				0,
				1
			]
		}
	],
	"nodes":[
		{
			"mesh":0,
			"name":"Door_Double.R"
		},
		{
			"mesh":1,
			"name":"Door_Double.L"
		}
	],
	"materials":[
		{
			"doubleSided":true,
			"name":"Main",
			"pbrMetallicRoughness":{
				"baseColorFactor":[
					0.40196332335472107,
					0.40196332335472107,
					0.40196332335472107,
					1
				],
				"metallicFactor":0,
				"roughnessFactor":0.5
			}
		},
		{
			"doubleSided":true,
			"name":"Accent",
			"pbrMetallicRoughness":{
				"baseColorFactor":[
					0.559592604637146,
					0.29767245054244995,
					0.06678982824087143,
					1
				],
				"metallicFactor":0,
				"roughnessFactor":0.5
			}
		},
		{
			"doubleSided":true,
			"name":"DarkAccent",
			"pbrMetallicRoughness":{
				"baseColorFactor":[
					0.226578950881958,
					0.12337818741798401,
					0.030147360637784004,
					1
				],
				"metallicFactor":0,
				"roughnessFactor":0.5
			}
		},
		{
			"doubleSided":true,
			"name":"DarkGrey",
			"pbrMetallicRoughness":{
				"baseColorFactor":[
					0.23954731225967407,
					0.23954731225967407,
					0.23954731225967407,
					1
				],
				"metallicFactor":0,
				"roughnessFactor":0.5
			}
		},
		{
			"doubleSided":true,
			"name":"Black",
			"pbrMetallicRoughness":{
				"baseColorFactor":[
					0.04202548414468765,
					0.04202548414468765,
					0.04202548414468765,
					1
				],
				"metallicFactor":0,
				"roughnessFactor":0.5
			}
		}
	],
	"meshes":[
		{
			"name":"Plane.000",
			"primitives":[
				{
					"attributes":{
						"POSITION":0,
						"NORMAL":1
					},
					"indices":2,
					"material":0
				},
				{
					"attributes":{
						"POSITION":3,
						"NORMAL":4
					},
					"indices":5,
					"material":1
				},
				{
					"attributes":{
						"POSITION":6,
						"NORMAL":7
					},
					"indices":8,
					"material":2
				},
				{
					"attributes":{
						"POSITION":9,
						"NORMAL":10
					},
					"indices":11,
					"material":3
				},
				{
					"attributes":{
						"POSITION":12,
						"NORMAL":13
					},
					"indices":14,
					"material":4
				}
			]
		},
		{
			"name":"Plane.009",
			"primitives":[
				{
					"attributes":{
						"POSITION":15,
						"NORMAL":16
					},
					"indices":17,
					"material":0
				},
				{
					"attributes":{
						"POSITION":18,
						"NORMAL":19
					},
					"indices":20,
					"material":1
				},
				{
					"attributes":{
						"POSITION":21,
						"NORMAL":22
					},
					"indices":23,
					"material":2
				},
				{
					"attributes":{
						"POSITION":24,
						"NORMAL":25
					},
					"indices":26,
					"material":3
				},
				{
					"attributes":{
						"POSITION":27,
						"NORMAL":28
					},
					"indices":29,
					"material":4
				}
			]
		}
	],
	"accessors":[
		{
			"bufferView":0,
			"componentType":5126,
			"count":376,
			"max":[
				1.093773365020752,
				2.5991854667663574,
				-0.2770794630050659
			],
			"min":[
				0.17644718289375305,
				0.677262008190155,
				-0.5527305006980896
			],
			"type":"VEC3"
		},
		{
			"bufferView":1,
			"componentType":5126,
			"count":376,
			"type":"VEC3"
		},
		{
			"bufferView":2,
			"componentType":5123,
			"count":756,
			"type":"SCALAR"
		},
		{
			"bufferView":3,
			"componentType":5126,
			"count":360,
			"max":[
				1.3077542781829834,
				2.631575584411621,
				-0.18778860569000244
			],
			"min":[
				0.006076812744140625,
				0.4146121144294739,
				-0.6420213580131531
			],
			"type":"VEC3"
		},
		{
			"bufferView":4,
			"componentType":5126,
			"count":360,
			"type":"VEC3"
		},
		{
			"bufferView":5,
			"componentType":5123,
			"count":720,
			"type":"SCALAR"
		},
		{
			"bufferView":6,
			"componentType":5126,
			"count":324,
			"max":[
				1.3077542781829834,
				2.600928783416748,
				-0.18778860569000244
			],
			"min":[
				0.006076812744140625,
				-0.0003554224967956543,
				-0.6420213580131531
			],
			"type":"VEC3"
		},
		{
			"bufferView":7,
			"componentType":5126,
			"count":324,
			"type":"VEC3"
		},
		{
			"bufferView":8,
			"componentType":5123,
			"count":648,
			"type":"SCALAR"
		},
		{
			"bufferView":9,
			"componentType":5126,
			"count":120,
			"max":[
				1.3263920545578003,
				2.324249744415283,
				-0.22334109246730804
			],
			"min":[
				0.9564946293830872,
				0.90127032995224,
				-0.6064688563346863
			],
			"type":"VEC3"
		},
		{
			"bufferView":10,
			"componentType":5126,
			"count":120,
			"type":"VEC3"
		},
		{
			"bufferView":11,
			"componentType":5123,
			"count":216,
			"type":"SCALAR"
		},
		{
			"bufferView":12,
			"componentType":5126,
			"count":282,
			"max":[
				1.3077542781829834,
				2.790818691253662,
				-0.18778860569000244
			],
			"min":[
				0.006076812744140625,
				-0.0003554224967956543,
				-0.6420213580131531
			],
			"type":"VEC3"
		},
		{
			"bufferView":13,
			"componentType":5126,
			"count":282,
			"type":"VEC3"
		},
		{
			"bufferView":14,
			"componentType":5123,
			"count":648,
			"type":"SCALAR"
		},
		{
			"bufferView":15,
			"componentType":5126,
			"count":376,
			"max":[
				-0.17644718289375305,
				2.5991854667663574,
				-0.2770794630050659
			],
			"min":[
				-1.093773365020752,
				0.677262008190155,
				-0.5527305006980896
			],
			"type":"VEC3"
		},
		{
			"bufferView":16,
			"componentType":5126,
			"count":376,
			"type":"VEC3"
		},
		{
			"bufferView":17,
			"componentType":5123,
			"count":756,
			"type":"SCALAR"
		},
		{
			"bufferView":18,
			"componentType":5126,
			"count":360,
			"max":[
				-0.006076812744140625,
				2.631575584411621,
				-0.18778860569000244
			],
			"min":[
				-1.3077542781829834,
				0.4146121144294739,
				-0.6420213580131531
			],
			"type":"VEC3"
		},
		{
			"bufferView":19,
			"componentType":5126,
			"count":360,
			"type":"VEC3"
		},
		{
			"bufferView":20,
			"componentType":5123,
			"count":720,
			"type":"SCALAR"
		},
		{
			"bufferView":21,
			"componentType":5126,
			"count":324,
			"max":[
				-0.006076812744140625,
				2.600928783416748,
				-0.18778860569000244
			],
			"min":[
				-1.3077542781829834,
				-0.0003554224967956543,
				-0.6420213580131531
			],
			"type":"VEC3"
		},
		{
			"bufferView":22,
			"componentType":5126,
			"count":324,
			"type":"VEC3"
		},
		{
			"bufferView":23,
			"componentType":5123,
			"count":648,
			"type":"SCALAR"
		},
		{
			"bufferView":24,
			"componentType":5126,
			"count":120,
			"max":[
				-0.9564946293830872,
				2.324249744415283,
				-0.22334109246730804
			],
			"min":[
				-1.3263920545578003,
				0.90127032995224,
				-0.6064688563346863
			],
			"type":"VEC3"
		},
		{
			"bufferView":25,
			"componentType":5126,
			"count":120,
			"type":"VEC3"
		},
		{
			"bufferView":26,
			"componentType":5123,
			"count":216,
			"type":"SCALAR"
		},
		{
			"bufferView":27,
			"componentType":5126,
			"count":282,
			"max":[
				-0.006076812744140625,
				2.790818691253662,
				-0.18778860569000244
			],
			"min":[
				-1.3077542781829834,
				-0.0003554224967956543,
				-0.6420213580131531
			],
			"type":"VEC3"
		},
		{
			"bufferView":28,
			"componentType":5126,
			"count":282,
			"type":"VEC3"
		},
		{
			"bufferView":29,
			"componentType":5123,
			"count":648,
			"type":"SCALAR"
		}
	],
	"bufferViews":[
		{
			"buffer":0,
			"byteLength":4512,
			"byteOffset":0,
			"target":34962
		},
		{
			"buffer":0,
			"byteLength":4512,
			"byteOffset":4512,
			"target":34962
		},
		{
			"buffer":0,
			"byteLength":1512,
			"byteOffset":9024,
			"target":34963
		},
		{
			"buffer":0,
			"byteLength":4320,
			"byteOffset":10536,
			"target":34962
		},
		{
			"buffer":0,
			"byteLength":4320,
			"byteOffset":14856,
			"target":34962
		},
		{
			"buffer":0,
			"byteLength":1440,
			"byteOffset":19176,
			"target":34963
		},
		{
			"buffer":0,
			"byteLength":3888,
			"byteOffset":20616,
			"target":34962
		},
		{
			"buffer":0,
			"byteLength":3888,
			"byteOffset":24504,
			"target":34962
		},
		{
			"buffer":0,
			"byteLength":1296,
			"byteOffset":28392,
			"target":34963
		},
		{
			"buffer":0,
			"byteLength":1440,
			"byteOffset":29688,
			"target":34962
		},
		{
			"buffer":0,
			"byteLength":1440,
			"byteOffset":31128,
			"target":34962
		},
		{
			"buffer":0,
			"byteLength":432,
			"byteOffset":32568,
			"target":34963
		},
		{
			"buffer":0,
			"byteLength":3384,
			"byteOffset":33000,
			"target":34962
		},
		{
			"buffer":0,
			"byteLength":3384,
			"byteOffset":36384,
			"target":34962
		},
		{
			"buffer":0,
			"byteLength":1296,
			"byteOffset":39768,
			"target":34963
		},
		{
			"buffer":0,
			"byteLength":4512,
			"byteOffset":41064,
			"target":34962
		},
		{
			"buffer":0,
			"byteLength":4512,
			"byteOffset":45576,
			"target":34962
		},
		{
			"buffer":0,
			"byteLength":1512,
			"byteOffset":50088,
			"target":34963
		},
		{
			"buffer":0,
			"byteLength":4320,
			"byteOffset":51600,
			"target":34962
		},
		{
			"buffer":0,
			"byteLength":4320,
			"byteOffset":55920,
			"target":34962
		},
		{
			"buffer":0,
			"byteLength":1440,
			"byteOffset":60240,
			"target":34963
		},
		{
			"buffer":0,
			"byteLength":3888,
			"byteOffset":61680,
			"target":34962
		},
		{
			"buffer":0,
			"byteLength":3888,
			"byteOffset":65568,
			"target":34962
		},
		{
			"buffer":0,
			"byteLength":1296,
			"byteOffset":69456,
			"target":34963
		},
		{
			"buffer":0,
			"byteLength":1440,
			"byteOffset":70752,
			"target":34962
		},
		{
			"buffer":0,
			"byteLength":1440,
			"byteOffset":72192,
			"target":34962
		},
		{
			"buffer":0,
			"byteLength":432,
			"byteOffset":73632,
			"target":34963
		},
		{
			"buffer":0,
			"byteLength":3384,
			"byteOffset":74064,
			"target":34962
		},
		{
			"buffer":0,
			"byteLength":3384,
			"byteOffset":77448,
			"target":34962
		},
		{
			"buffer":0,
			"byteLength":1296,
			"byteOffset":80832,
			"target":34963
		}
	],
	"buffers":[
		{
			"byteLength":82128,
			"uri":"data:application/octet-stream;base64,"
		}
	]
}
