{
	"asset":{
		"generator":"Khronos glTF Blender I/O v3.6.28",
		"version":"2.0"
	},
	"scene":0,
	"scenes":[
		{
			"name":"Scene",
			"nodes":[
				0
			]
		}
	],
	"nodes":[
		{
			"mesh":0,
			"name":"Door_Single"
		}
	],
	"materials":[
		{
			"doubleSided":true,
			"name":"Main",
			"pbrMetallicRoughness":{
				"baseColorFactor":[
					0.40196332335472107,
					0.40196332335472107,
					0.40196332335472107,
					1
				],
				"metallicFactor":0,
				"roughnessFactor":0.5
			}
		},
		{
			"doubleSided":true,
			"name":"Accent",
			"pbrMetallicRoughness":{
				"baseColorFactor":[
					0.559592604637146,
					0.29767245054244995,
					0.06678982824087143,
					1
				],
				"metallicFactor":0,
				"roughnessFactor":0.5
			}
		},
		{
			"doubleSided":true,
			"name":"DarkAccent",
			"pbrMetallicRoughness":{
				"baseColorFactor":[
					0.226578950881958,
					0.12337818741798401,
					0.030147360637784004,
					1
				],
				"metallicFactor":0,
				"roughnessFactor":0.5
			}
		},
		{
			"doubleSided":true,
			"name":"DarkGrey",
			"pbrMetallicRoughness":{
				"baseColorFactor":[
					0.23954731225967407,
					0.23954731225967407,
					0.23954731225967407,
					1
				],
				"metallicFactor":0,
				"roughnessFactor":0.5
			}
		},
		{
			"doubleSided":true,
			"name":"Black",
			"pbrMetallicRoughness":{
				"baseColorFactor":[
					0.04202548414468765,
					0.04202548414468765,
					0.04202548414468765,
					1
				],
				"metallicFactor":0,
				"roughnessFactor":0.5
			}
		}
	],
	"meshes":[
		{
			"name":"Plane.024",
			"primitives":[
				{
					"attributes":{
						"POSITION":0,
						"NORMAL":1
					},
					"indices":2,
					"material":0
				},
				{
					"attributes":{
						"POSITION":3,
						"NORMAL":4
					},
					"indices":5,
					"material":1
				},
				{
					"attributes":{
						"POSITION":6,
						"NORMAL":7
					},
					"indices":8,
					"material":2
				},
				{
					"attributes":{
						"POSITION":9,
						"NORMAL":10
					},
					"indices":11,
					"material":3
				},
				{
					"attributes":{
						"POSITION":12,
						"NORMAL":13
					},
					"indices":14,
					"material":4
				}
			]
		}
	],
	"accessors":[
		{
			"bufferView":0,
			"componentType":5126,
			"count":376,
			"max":[
				0.5479120016098022,
				2.598815441131592,
				-0.27738523483276367
			],
			"min":[
				-0.5479120016098022,
				0.6768921613693237,
				-0.5572491884231567
			],
			"type":"VEC3"
		},
		{
			"bufferView":1,
			"componentType":5126,
			"count":376,
			"type":"VEC3"
		},
		{
			"bufferView":2,
			"componentType":5123,
			"count":816,
			"type":"SCALAR"
		},
		{
			"bufferView":3,
			"componentType":5126,
			"count":374,
			"max":[
				0.7618929147720337,
				2.6312060356140137,
				-0.19163639843463898
			],
			"min":[
				-0.7618929147720337,
				0.4142422676086426,
				-0.6429979801177979
			],
			"type":"VEC3"
		},
		{
			"bufferView":4,
			"componentType":5126,
			"count":374,
			"type":"VEC3"
		},
		{
			"bufferView":5,
			"componentType":5123,
			"count":912,
			"type":"SCALAR"
		},
		{
			"bufferView":6,
			"componentType":5126,
			"count":576,
			"max":[
				0.7618929147720337,
				2.6005587577819824,
				-0.19163639843463898
			],
			"min":[
				-0.7618929147720337,
				-0.0007252693176269531,
				-0.6429979801177979
			],
			"type":"VEC3"
		},
		{
			"bufferView":7,
			"componentType":5126,
			"count":576,
			"type":"VEC3"
		},
		{
			"bufferView":8,
			"componentType":5123,
			"count":1116,
			"type":"SCALAR"
		},
		{
			"bufferView":9,
			"componentType":5126,
			"count":240,
			"max":[
				0.8366069793701172,
				2.3238797187805176,
				-0.22577857971191406
			],
			"min":[
				-0.8366069793701172,
				0.9009004831314087,
				-0.6088557839393616
			],
			"type":"VEC3"
		},
		{
			"bufferView":10,
			"componentType":5126,
			"count":240,
			"type":"VEC3"
		},
		{
			"bufferView":11,
			"componentType":5123,
			"count":432,
			"type":"SCALAR"
		},
		{
			"bufferView":12,
			"componentType":5126,
			"count":376,
			"max":[
				0.7618929147720337,
				2.7904486656188965,
				-0.19163639843463898
			],
			"min":[
				-0.7618929147720337,
				-0.0007252693176269531,
				-0.6429979801177979
			],
			"type":"VEC3"
		},
		{
			"bufferView":13,
			"componentType":5126,
			"count":376,
			"type":"VEC3"
		},
		{
			"bufferView":14,
			"componentType":5123,
			"count":924,
			"type":"SCALAR"
		}
	],
	"bufferViews":[
		{
			"buffer":0,
			"byteLength":4512,
			"byteOffset":0,
			"target":34962
		},
		{
			"buffer":0,
			"byteLength":4512,
			"byteOffset":4512,
			"target":34962
		},
		{
			"buffer":0,
			"byteLength":1632,
			"byteOffset":9024,
			"target":34963
		},
		{
			"buffer":0,
			"byteLength":4488,
			"byteOffset":10656,
			"target":34962
		},
		{
			"buffer":0,
			"byteLength":4488,
			"byteOffset":15144,
			"target":34962
		},
		{
			"buffer":0,
			"byteLength":1824,
			"byteOffset":19632,
			"target":34963
		},
		{
			"buffer":0,
			"byteLength":6912,
			"byteOffset":21456,
			"target":34962
		},
		{
			"buffer":0,
			"byteLength":6912,
			"byteOffset":28368,
			"target":34962
		},
		{
			"buffer":0,
			"byteLength":2232,
			"byteOffset":35280,
			"target":34963
		},
		{
			"buffer":0,
			"byteLength":2880,
			"byteOffset":37512,
			"target":34962
		},
		{
			"buffer":0,
			"byteLength":2880,
			"byteOffset":40392,
			"target":34962
		},
		{
			"buffer":0,
			"byteLength":864,
			"byteOffset":43272,
			"target":34963
		},
		{
			"buffer":0,
			"byteLength":4512,
			"byteOffset":44136,
			"target":34962
		},
		{
			"buffer":0,
			"byteLength":4512,
			"byteOffset":48648,
			"target":34962
		},
		{
			"buffer":0,
			"byteLength":1848,
			"byteOffset":53160,
			"target":34963
		}
	],
	"buffers":[
		{
			"byteLength":55008,
			"uri":"data:application/octet-stream;base64,"
		}
	]
}
