{
	"asset":{
		"generator":"Khronos glTF Blender I/O v3.6.28",
		"version":"2.0"
	},
	"scene":0,
	"scenes":[
		{
			"name":"Scene",
			"nodes":[
				0
			]
		}
	],
	"nodes":[
		{
			"mesh":0,
			"name":"Props_ContainerFull"
		}
	],
	"materials":[
		{
			"doubleSided":true,
			"name":"Main",
			"pbrMetallicRoughness":{
				"baseColorFactor":[
					0.40196332335472107,
					0.40196332335472107,
					0.40196332335472107,
					1
				],
				"metallicFactor":0,
				"roughnessFactor":0.5
			}
		},
		{
			"doubleSided":true,
			"name":"Accent",
			"pbrMetallicRoughness":{
				"baseColorFactor":[
					0.559592604637146,
					0.29767245054244995,
					0.06678982824087143,
					1
				],
				"metallicFactor":0,
				"roughnessFactor":0.5
			}
		},
		{
			"doubleSided":true,
			"name":"DarkGrey",
			"pbrMetallicRoughness":{
				"baseColorFactor":[
					0.23954731225967407,
					0.23954731225967407,
					0.23954731225967407,
					1
				],
				"metallicFactor":0,
				"roughnessFactor":0.5
			}
		},
		{
			"doubleSided":true,
			"name":"DarkAccent",
			"pbrMetallicRoughness":{
				"baseColorFactor":[
					0.226578950881958,
					0.12337818741798401,
					0.030147360637784004,
					1
				],
				"metallicFactor":0,
				"roughnessFactor":0.5
			}
		},
		{
			"doubleSided":true,
			"name":"Black",
			"pbrMetallicRoughness":{
				"baseColorFactor":[
					0.04202548414468765,
					0.04202548414468765,
					0.04202548414468765,
					1
				],
				"metallicFactor":0,
				"roughnessFactor":0.5
			}
		}
	],
	"meshes":[
		{
			"name":"Cube.026",
			"primitives":[
				{
					"attributes":{
						"POSITION":0,
						"NORMAL":1
					},
					"indices":2,
					"material":0
				},
				{
					"attributes":{
						"POSITION":3,
						"NORMAL":4
					},
					"indices":5,
					"material":1
				},
				{
					"attributes":{
						"POSITION":6,
						"NORMAL":7
					},
					"indices":8,
					"material":2
				},
				{
					"attributes":{
						"POSITION":9,
						"NORMAL":10
					},
					"indices":11,
					"material":3
				},
				{
					"attributes":{
						"POSITION":12,
						"NORMAL":13
					},
					"indices":14,
					"material":4
				}
			]
		}
	],
	"accessors":[
		{
			"bufferView":0,
			"componentType":5126,
			"count":4343,
			"max":[
				0.5910922288894653,
				0.5840926170349121,
				0.37298867106437683
			],
			"min":[
				-0.5964182019233704,
				0.0016569197177886963,
				-0.37335455417633057
			],
			"type":"VEC3"
		},
		{
			"bufferView":1,
			"componentType":5126,
			"count":4343,
			"type":"VEC3"
		},
		{
			"bufferView":2,
			"componentType":5123,
			"count":7062,
			"type":"SCALAR"
		},
		{
			"bufferView":3,
			"componentType":5126,
			"count":1240,
			"max":[
				0.5803351998329163,
				0.5324667692184448,
				0.36520543694496155
			],
			"min":[
				-0.5856611132621765,
				0.009442448616027832,
				-0.3655667304992676
			],
			"type":"VEC3"
		},
		{
			"bufferView":4,
			"componentType":5126,
			"count":1240,
			"type":"VEC3"
		},
		{
			"bufferView":5,
			"componentType":5123,
			"count":2244,
			"type":"SCALAR"
		},
		{
			"bufferView":6,
			"componentType":5126,
			"count":164,
			"max":[
				0.4604457914829254,
				0.5700045824050903,
				0.3479312062263489
			],
			"min":[
				-0.45275044441223145,
				0.026736527681350708,
				-0.3482528030872345
			],
			"type":"VEC3"
		},
		{
			"bufferView":7,
			"componentType":5126,
			"count":164,
			"type":"VEC3"
		},
		{
			"bufferView":8,
			"componentType":5123,
			"count":342,
			"type":"SCALAR"
		},
		{
			"bufferView":9,
			"componentType":5126,
			"count":2928,
			"max":[
				0.6010240316390991,
				0.5579034090042114,
				0.3758438527584076
			],
			"min":[
				-0.6010241508483887,
				0.03812941908836365,
				-0.3758438527584076
			],
			"type":"VEC3"
		},
		{
			"bufferView":10,
			"componentType":5126,
			"count":2928,
			"type":"VEC3"
		},
		{
			"bufferView":11,
			"componentType":5123,
			"count":4836,
			"type":"SCALAR"
		},
		{
			"bufferView":12,
			"componentType":5126,
			"count":124,
			"max":[
				0.5644491910934448,
				0.4370807409286499,
				0.31643393635749817
			],
			"min":[
				-0.5697750449180603,
				0.058211758732795715,
				-0.31679975986480713
			],
			"type":"VEC3"
		},
		{
			"bufferView":13,
			"componentType":5126,
			"count":124,
			"type":"VEC3"
		},
		{
			"bufferView":14,
			"componentType":5123,
			"count":306,
			"type":"SCALAR"
		}
	],
	"bufferViews":[
		{
			"buffer":0,
			"byteLength":52116,
			"byteOffset":0,
			"target":34962
		},
		{
			"buffer":0,
			"byteLength":52116,
			"byteOffset":52116,
			"target":34962
		},
		{
			"buffer":0,
			"byteLength":14124,
			"byteOffset":104232,
			"target":34963
		},
		{
			"buffer":0,
			"byteLength":14880,
			"byteOffset":118356,
			"target":34962
		},
		{
			"buffer":0,
			"byteLength":14880,
			"byteOffset":133236,
			"target":34962
		},
		{
			"buffer":0,
			"byteLength":4488,
			"byteOffset":148116,
			"target":34963
		},
		{
			"buffer":0,
			"byteLength":1968,
			"byteOffset":152604,
			"target":34962
		},
		{
			"buffer":0,
			"byteLength":1968,
			"byteOffset":154572,
			"target":34962
		},
		{
			"buffer":0,
			"byteLength":684,
			"byteOffset":156540,
			"target":34963
		},
		{
			"buffer":0,
			"byteLength":35136,
			"byteOffset":157224,
			"target":34962
		},
		{
			"buffer":0,
			"byteLength":35136,
			"byteOffset":192360,
			"target":34962
		},
		{
			"buffer":0,
			"byteLength":9672,
			"byteOffset":227496,
			"target":34963
		},
		{
			"buffer":0,
			"byteLength":1488,
			"byteOffset":237168,
			"target":34962
		},
		{
			"buffer":0,
			"byteLength":1488,
			"byteOffset":238656,
			"target":34962
		},
		{
			"buffer":0,
			"byteLength":612,
			"byteOffset":240144,
			"target":34963
		}
	],
	"buffers":[
		{
			"byteLength":240756,
			"uri":"data:application/octet-stream;base64,"
		}
	]
}
