{
	"asset":{
		"generator":"Khronos glTF Blender I/O v3.6.28",
		"version":"2.0"
	},
	"scene":0,
	"scenes":[
		{
			"name":"Scene",
			"nodes":[
				0
			]
		}
	],
	"nodes":[
		{
			"mesh":0,
			"name":"Props_Laser"
		}
	],
	"materials":[
		{
			"doubleSided":true,
			"name":"Main",
			"pbrMetallicRoughness":{
				"baseColorFactor":[
					0.40196332335472107,
					0.40196332335472107,
					0.40196332335472107,
					1
				],
				"metallicFactor":0,
				"roughnessFactor":0.5
			}
		},
		{
			"doubleSided":true,
			"name":"DarkGrey",
			"pbrMetallicRoughness":{
				"baseColorFactor":[
					0.23954731225967407,
					0.23954731225967407,
					0.23954731225967407,
					1
				],
				"metallicFactor":0,
				"roughnessFactor":0.5
			}
		},
		{
			"doubleSided":true,
			"name":"Accent",
			"pbrMetallicRoughness":{
				"baseColorFactor":[
					0.559592604637146,
					0.29767245054244995,
					0.06678982824087143,
					1
				],
				"metallicFactor":0,
				"roughnessFactor":0.5
			}
		}
	],
	"meshes":[
		{
			"name":"Cylinder.208",
			"primitives":[
				{
					"attributes":{
						"POSITION":0,
						"NORMAL":1
					},
					"indices":2,
					"material":0
				},
				{
					"attributes":{
						"POSITION":3,
						"NORMAL":4
					},
					"indices":5,
					"material":1
				},
				{
					"attributes":{
						"POSITION":6,
						"NORMAL":7
					},
					"indices":8,
					"material":2
				}
			]
		}
	],
	"accessors":[
		{
			"bufferView":0,
			"componentType":5126,
			"count":1460,
			"max":[
				1.5178701877593994,
				1.2706310749053955,
				0.655760645866394
			],
			"min":[
				-1.0229263305664062,
				-0.007618367671966553,
				-0.6496082544326782
			],
			"type":"VEC3"
		},
		{
			"bufferView":1,
			"componentType":5126,
			"count":1460,
			"type":"VEC3"
		},
		{
			"bufferView":2,
			"componentType":5123,
			"count":2454,
			"type":"SCALAR"
		},
		{
			"bufferView":3,
			"componentType":5126,
			"count":1024,
			"max":[
				1.7601423263549805,
				1.2657749652862549,
				0.7270591259002686
			],
			"min":[
				-2.0811574459075928,
				-0.014508664608001709,
				-0.7368030548095703
			],
			"type":"VEC3"
		},
		{
			"bufferView":4,
			"componentType":5126,
			"count":1024,
			"type":"VEC3"
		},
		{
			"bufferView":5,
			"componentType":5123,
			"count":1626,
			"type":"SCALAR"
		},
		{
			"bufferView":6,
			"componentType":5126,
			"count":416,
			"max":[
				0.37475115060806274,
				1.1643024682998657,
				0.5944945812225342
			],
			"min":[
				-1.8389036655426025,
				-0.019953012466430664,
				-0.590388298034668
			],
			"type":"VEC3"
		},
		{
			"bufferView":7,
			"componentType":5126,
			"count":416,
			"type":"VEC3"
		},
		{
			"bufferView":8,
			"componentType":5123,
			"count":624,
			"type":"SCALAR"
		}
	],
	"bufferViews":[
		{
			"buffer":0,
			"byteLength":17520,
			"byteOffset":0,
			"target":34962
		},
		{
			"buffer":0,
			"byteLength":17520,
			"byteOffset":17520,
			"target":34962
		},
		{
			"buffer":0,
			"byteLength":4908,
			"byteOffset":35040,
			"target":34963
		},
		{
			"buffer":0,
			"byteLength":12288,
			"byteOffset":39948,
			"target":34962
		},
		{
			"buffer":0,
			"byteLength":12288,
			"byteOffset":52236,
			"target":34962
		},
		{
			"buffer":0,
			"byteLength":3252,
			"byteOffset":64524,
			"target":34963
		},
		{
			"buffer":0,
			"byteLength":4992,
			"byteOffset":67776,
			"target":34962
		},
		{
			"buffer":0,
			"byteLength":4992,
			"byteOffset":72768,
			"target":34962
		},
		{
			"buffer":0,
			"byteLength":1248,
			"byteOffset":77760,
			"target":34963
		}
	],
	"buffers":[
		{
			"byteLength":79008,
			"uri":"data:application/octet-stream;base64,"
		}
	]
}
