{
	"asset":{
		"generator":"Khronos glTF Blender I/O v3.6.28",
		"version":"2.0"
	},
	"scene":0,
	"scenes":[
		{
			"name":"Scene",
			"nodes":[
				0
			]
		}
	],
	"nodes":[
		{
			"mesh":0,
			"name":"Props_Vessel"
		}
	],
	"materials":[
		{
			"doubleSided":true,
			"name":"Main",
			"pbrMetallicRoughness":{
				"baseColorFactor":[
					0.40196332335472107,
					0.40196332335472107,
					0.40196332335472107,
					1
				],
				"metallicFactor":0,
				"roughnessFactor":0.5
			}
		},
		{
			"doubleSided":true,
			"name":"Accent",
			"pbrMetallicRoughness":{
				"baseColorFactor":[
					0.559592604637146,
					0.29767245054244995,
					0.06678982824087143,
					1
				],
				"metallicFactor":0,
				"roughnessFactor":0.5
			}
		},
		{
			"doubleSided":true,
			"name":"DarkGrey",
			"pbrMetallicRoughness":{
				"baseColorFactor":[
					0.23954731225967407,
					0.23954731225967407,
					0.23954731225967407,
					1
				],
				"metallicFactor":0,
				"roughnessFactor":0.5
			}
		}
	],
	"meshes":[
		{
			"name":"Cube.027",
			"primitives":[
				{
					"attributes":{
						"POSITION":0,
						"NORMAL":1
					},
					"indices":2,
					"material":0
				},
				{
					"attributes":{
						"POSITION":3,
						"NORMAL":4
					},
					"indices":5,
					"material":1
				},
				{
					"attributes":{
						"POSITION":6,
						"NORMAL":7
					},
					"indices":8,
					"material":2
				}
			]
		}
	],
	"accessors":[
		{
			"bufferView":0,
			"componentType":5126,
			"count":560,
			"max":[
				0.14365504682064056,
				0.768050491809845,
				0.14365491271018982
			],
			"min":[
				-0.143654927611351,
				-0.0024962425231933594,
				-0.14365489780902863
			],
			"type":"VEC3"
		},
		{
			"bufferView":1,
			"componentType":5126,
			"count":560,
			"type":"VEC3"
		},
		{
			"bufferView":2,
			"componentType":5123,
			"count":864,
			"type":"SCALAR"
		},
		{
			"bufferView":3,
			"componentType":5126,
			"count":64,
			"max":[
				0.13491228222846985,
				0.6581250429153442,
				0.13491219282150269
			],
			"min":[
				-0.13491220772266388,
				0.10742920637130737,
				-0.1349121779203415
			],
			"type":"VEC3"
		},
		{
			"bufferView":4,
			"componentType":5126,
			"count":64,
			"type":"VEC3"
		},
		{
			"bufferView":5,
			"componentType":5123,
			"count":96,
			"type":"SCALAR"
		},
		{
			"bufferView":6,
			"componentType":5126,
			"count":16,
			"max":[
				0.05932988226413727,
				0.7486108541488647,
				0.05932975187897682
			],
			"min":[
				-0.05932973325252533,
				0.016943395137786865,
				-0.059329740703105927
			],
			"type":"VEC3"
		},
		{
			"bufferView":7,
			"componentType":5126,
			"count":16,
			"type":"VEC3"
		},
		{
			"bufferView":8,
			"componentType":5123,
			"count":36,
			"type":"SCALAR"
		}
	],
	"bufferViews":[
		{
			"buffer":0,
			"byteLength":6720,
			"byteOffset":0,
			"target":34962
		},
		{
			"buffer":0,
			"byteLength":6720,
			"byteOffset":6720,
			"target":34962
		},
		{
			"buffer":0,
			"byteLength":1728,
			"byteOffset":13440,
			"target":34963
		},
		{
			"buffer":0,
			"byteLength":768,
			"byteOffset":15168,
			"target":34962
		},
		{
			"buffer":0,
			"byteLength":768,
			"byteOffset":15936,
			"target":34962
		},
		{
			"buffer":0,
			"byteLength":192,
			"byteOffset":16704,
			"target":34963
		},
		{
			"buffer":0,
			"byteLength":192,
			"byteOffset":16896,
			"target":34962
		},
		{
			"buffer":0,
			"byteLength":192,
			"byteOffset":17088,
			"target":34962
		},
		{
			"buffer":0,
			"byteLength":72,
			"byteOffset":17280,
			"target":34963
		}
	],
	"buffers":[
		{
			"byteLength":17352,
			"uri":"data:application/octet-stream;base64,"
		}
	]
}
