{
	"asset":{
		"generator":"Khronos glTF Blender I/O v3.6.28",
		"version":"2.0"
	},
	"scene":0,
	"scenes":[
		{
			"name":"Scene",
			"nodes":[
				0
			]
		}
	],
	"nodes":[
		{
			"mesh":0,
			"name":"Props_Teleporter_2"
		}
	],
	"materials":[
		{
			"doubleSided":true,
			"name":"Main",
			"pbrMetallicRoughness":{
				"baseColorFactor":[
					0.40196332335472107,
					0.40196332335472107,
					0.40196332335472107,
					1
				],
				"metallicFactor":0,
				"roughnessFactor":0.5
			}
		},
		{
			"doubleSided":true,
			"name":"DarkGrey",
			"pbrMetallicRoughness":{
				"baseColorFactor":[
					0.23954731225967407,
					0.23954731225967407,
					0.23954731225967407,
					1
				],
				"metallicFactor":0,
				"roughnessFactor":0.5
			}
		},
		{
			"doubleSided":true,
			"name":"Accent",
			"pbrMetallicRoughness":{
				"baseColorFactor":[
					0.559592604637146,
					0.29767245054244995,
					0.06678982824087143,
					1
				],
				"metallicFactor":0,
				"roughnessFactor":0.5
			}
		}
	],
	"meshes":[
		{
			"name":"Cylinder.255",
			"primitives":[
				{
					"attributes":{
						"POSITION":0,
						"NORMAL":1
					},
					"indices":2,
					"material":0
				},
				{
					"attributes":{
						"POSITION":3,
						"NORMAL":4
					},
					"indices":5,
					"material":1
				},
				{
					"attributes":{
						"POSITION":6,
						"NORMAL":7
					},
					"indices":8,
					"material":2
				}
			]
		}
	],
	"accessors":[
		{
			"bufferView":0,
			"componentType":5126,
			"count":268,
			"max":[
				0.6028957366943359,
				0.47286754846572876,
				0.6028947830200195
			],
			"min":[
				-0.6028938889503479,
				0.0015026628971099854,
				-0.6028949022293091
			],
			"type":"VEC3"
		},
		{
			"bufferView":1,
			"componentType":5126,
			"count":268,
			"type":"VEC3"
		},
		{
			"bufferView":2,
			"componentType":5123,
			"count":480,
			"type":"SCALAR"
		},
		{
			"bufferView":3,
			"componentType":5126,
			"count":1128,
			"max":[
				0.5123708248138428,
				1.3403151035308838,
				0.5120764374732971
			],
			"min":[
				-0.5125526785850525,
				0.27531301975250244,
				-0.512847363948822
			],
			"type":"VEC3"
		},
		{
			"bufferView":4,
			"componentType":5126,
			"count":1128,
			"type":"VEC3"
		},
		{
			"bufferView":5,
			"componentType":5123,
			"count":1800,
			"type":"SCALAR"
		},
		{
			"bufferView":6,
			"componentType":5126,
			"count":380,
			"max":[
				0.45392856001853943,
				0.9708970785140991,
				0.45392706990242004
			],
			"min":[
				-0.4539261758327484,
				0.3327223062515259,
				-0.45392751693725586
			],
			"type":"VEC3"
		},
		{
			"bufferView":7,
			"componentType":5126,
			"count":380,
			"type":"VEC3"
		},
		{
			"bufferView":8,
			"componentType":5123,
			"count":600,
			"type":"SCALAR"
		}
	],
	"bufferViews":[
		{
			"buffer":0,
			"byteLength":3216,
			"byteOffset":0,
			"target":34962
		},
		{
			"buffer":0,
			"byteLength":3216,
			"byteOffset":3216,
			"target":34962
		},
		{
			"buffer":0,
			"byteLength":960,
			"byteOffset":6432,
			"target":34963
		},
		{
			"buffer":0,
			"byteLength":13536,
			"byteOffset":7392,
			"target":34962
		},
		{
			"buffer":0,
			"byteLength":13536,
			"byteOffset":20928,
			"target":34962
		},
		{
			"buffer":0,
			"byteLength":3600,
			"byteOffset":34464,
			"target":34963
		},
		{
			"buffer":0,
			"byteLength":4560,
			"byteOffset":38064,
			"target":34962
		},
		{
			"buffer":0,
			"byteLength":4560,
			"byteOffset":42624,
			"target":34962
		},
		{
			"buffer":0,
			"byteLength":1200,
			"byteOffset":47184,
			"target":34963
		}
	],
	"buffers":[
		{
			"byteLength":48384,
			"uri":"data:application/octet-stream;base64,"
		}
	]
}
