{
	"asset":{
		"generator":"Khronos glTF Blender I/O v3.6.28",
		"version":"2.0"
	},
	"scene":0,
	"scenes":[
		{
			"name":"Scene",
			"nodes":[
				0
			]
		}
	],
	"nodes":[
		{
			"mesh":0,
			"name":"Staircase"
		}
	],
	"materials":[
		{
			"doubleSided":true,
			"name":"Main",
			"pbrMetallicRoughness":{
				"baseColorFactor":[
					0.40196332335472107,
					0.40196332335472107,
					0.40196332335472107,
					1
				],
				"metallicFactor":0,
				"roughnessFactor":0.5
			}
		},
		{
			"doubleSided":true,
			"name":"Accent",
			"pbrMetallicRoughness":{
				"baseColorFactor":[
					0.559592604637146,
					0.29767245054244995,
					0.06678982824087143,
					1
				],
				"metallicFactor":0,
				"roughnessFactor":0.5
			}
		},
		{
			"doubleSided":true,
			"name":"DarkGrey",
			"pbrMetallicRoughness":{
				"baseColorFactor":[
					0.23954731225967407,
					0.23954731225967407,
					0.23954731225967407,
					1
				],
				"metallicFactor":0,
				"roughnessFactor":0.5
			}
		}
	],
	"meshes":[
		{
			"name":"Plane.319",
			"primitives":[
				{
					"attributes":{
						"POSITION":0,
						"NORMAL":1
					},
					"indices":2,
					"material":0
				},
				{
					"attributes":{
						"POSITION":3,
						"NORMAL":4
					},
					"indices":5,
					"material":1
				},
				{
					"attributes":{
						"POSITION":6,
						"NORMAL":7
					},
					"indices":8,
					"material":2
				}
			]
		}
	],
	"accessors":[
		{
			"bufferView":0,
			"componentType":5126,
			"count":112,
			"max":[
				1.3685780763626099,
				0.01609957218170166,
				3.0092499256134033
			],
			"min":[
				-1.3685790300369263,
				-1.0149998664855957,
				-4.757416718348395e-07
			],
			"type":"VEC3"
		},
		{
			"bufferView":1,
			"componentType":5126,
			"count":112,
			"type":"VEC3"
		},
		{
			"bufferView":2,
			"componentType":5123,
			"count":168,
			"type":"SCALAR"
		},
		{
			"bufferView":3,
			"componentType":5126,
			"count":224,
			"max":[
				1.412649393081665,
				0.01609957218170166,
				3.0092499256134033
			],
			"min":[
				-1.4126503467559814,
				-1.0149998664855957,
				-4.901019110548077e-07
			],
			"type":"VEC3"
		},
		{
			"bufferView":4,
			"componentType":5126,
			"count":224,
			"type":"VEC3"
		},
		{
			"bufferView":5,
			"componentType":5123,
			"count":336,
			"type":"SCALAR"
		},
		{
			"bufferView":6,
			"componentType":5126,
			"count":284,
			"max":[
				1.8911010026931763,
				0.21446655690670013,
				3.111954927444458
			],
			"min":[
				-1.8911020755767822,
				-1.2394630908966064,
				-6.460012400566484e-07
			],
			"type":"VEC3"
		},
		{
			"bufferView":7,
			"componentType":5126,
			"count":284,
			"type":"VEC3"
		},
		{
			"bufferView":8,
			"componentType":5123,
			"count":432,
			"type":"SCALAR"
		}
	],
	"bufferViews":[
		{
			"buffer":0,
			"byteLength":1344,
			"byteOffset":0,
			"target":34962
		},
		{
			"buffer":0,
			"byteLength":1344,
			"byteOffset":1344,
			"target":34962
		},
		{
			"buffer":0,
			"byteLength":336,
			"byteOffset":2688,
			"target":34963
		},
		{
			"buffer":0,
			"byteLength":2688,
			"byteOffset":3024,
			"target":34962
		},
		{
			"buffer":0,
			"byteLength":2688,
			"byteOffset":5712,
			"target":34962
		},
		{
			"buffer":0,
			"byteLength":672,
			"byteOffset":8400,
			"target":34963
		},
		{
			"buffer":0,
			"byteLength":3408,
			"byteOffset":9072,
			"target":34962
		},
		{
			"buffer":0,
			"byteLength":3408,
			"byteOffset":12480,
			"target":34962
		},
		{
			"buffer":0,
			"byteLength":864,
			"byteOffset":15888,
			"target":34963
		}
	],
	"buffers":[
		{
			"byteLength":16752,
			"uri":"data:application/octet-stream;base64,"
		}
	]
}
