{
	"asset":{
		"generator":"Khronos glTF Blender I/O v3.6.28",
		"version":"2.0"
	},
	"scene":0,
	"scenes":[
		{
			"name":"Scene",
			"nodes":[
				0
			]
		}
	],
	"nodes":[
		{
			"mesh":0,
			"name":"FloorTile_Basic2"
		}
	],
	"materials":[
		{
			"doubleSided":true,
			"name":"Accent",
			"pbrMetallicRoughness":{
				"baseColorFactor":[
					0.559592604637146,
					0.29767245054244995,
					0.06678982824087143,
					1
				],
				"metallicFactor":0,
				"roughnessFactor":0.5
			}
		},
		{
			"doubleSided":true,
			"name":"DarkAccent",
			"pbrMetallicRoughness":{
				"baseColorFactor":[
					0.226578950881958,
					0.12337818741798401,
					0.030147360637784004,
					1
				],
				"metallicFactor":0,
				"roughnessFactor":0.5
			}
		},
		{
			"doubleSided":true,
			"name":"Main",
			"pbrMetallicRoughness":{
				"baseColorFactor":[
					0.40196332335472107,
					0.40196332335472107,
					0.40196332335472107,
					1
				],
				"metallicFactor":0,
				"roughnessFactor":0.5
			}
		},
		{
			"doubleSided":true,
			"name":"DarkGrey",
			"pbrMetallicRoughness":{
				"baseColorFactor":[
					0.23954731225967407,
					0.23954731225967407,
					0.23954731225967407,
					1
				],
				"metallicFactor":0,
				"roughnessFactor":0.5
			}
		}
	],
	"meshes":[
		{
			"name":"Plane.018",
			"primitives":[
				{
					"attributes":{
						"POSITION":0,
						"NORMAL":1
					},
					"indices":2,
					"material":0
				},
				{
					"attributes":{
						"POSITION":3,
						"NORMAL":4
					},
					"indices":5,
					"material":1
				},
				{
					"attributes":{
						"POSITION":6,
						"NORMAL":7
					},
					"indices":8,
					"material":2
				},
				{
					"attributes":{
						"POSITION":9,
						"NORMAL":10
					},
					"indices":11,
					"material":3
				}
			]
		}
	],
	"accessors":[
		{
			"bufferView":0,
			"componentType":5126,
			"count":96,
			"max":[
				0.9001920819282532,
				0.0136757493019104,
				0.9001920819282532
			],
			"min":[
				-0.9001916646957397,
				0.006906379945576191,
				-0.9001920819282532
			],
			"type":"VEC3"
		},
		{
			"bufferView":1,
			"componentType":5126,
			"count":96,
			"type":"VEC3"
		},
		{
			"bufferView":2,
			"componentType":5123,
			"count":300,
			"type":"SCALAR"
		},
		{
			"bufferView":3,
			"componentType":5126,
			"count":132,
			"max":[
				0.9552841782569885,
				0.041495829820632935,
				0.9552841782569885
			],
			"min":[
				-0.9552841782569885,
				-0.005108684301376343,
				-0.9552841782569885
			],
			"type":"VEC3"
		},
		{
			"bufferView":4,
			"componentType":5126,
			"count":132,
			"type":"VEC3"
		},
		{
			"bufferView":5,
			"componentType":5123,
			"count":216,
			"type":"SCALAR"
		},
		{
			"bufferView":6,
			"componentType":5126,
			"count":262,
			"max":[
				1.0000003576278687,
				0.036169588565826416,
				1.0000003576278687
			],
			"min":[
				-1.0000003576278687,
				-0.045754171907901764,
				-1.0000003576278687
			],
			"type":"VEC3"
		},
		{
			"bufferView":7,
			"componentType":5126,
			"count":262,
			"type":"VEC3"
		},
		{
			"bufferView":8,
			"componentType":5123,
			"count":498,
			"type":"SCALAR"
		},
		{
			"bufferView":9,
			"componentType":5126,
			"count":396,
			"max":[
				0.9474882483482361,
				0.04760974273085594,
				0.9474882483482361
			],
			"min":[
				-0.9474878311157227,
				-0.032821834087371826,
				-0.9474882483482361
			],
			"type":"VEC3"
		},
		{
			"bufferView":10,
			"componentType":5126,
			"count":396,
			"type":"VEC3"
		},
		{
			"bufferView":11,
			"componentType":5123,
			"count":696,
			"type":"SCALAR"
		}
	],
	"bufferViews":[
		{
			"buffer":0,
			"byteLength":1152,
			"byteOffset":0,
			"target":34962
		},
		{
			"buffer":0,
			"byteLength":1152,
			"byteOffset":1152,
			"target":34962
		},
		{
			"buffer":0,
			"byteLength":600,
			"byteOffset":2304,
			"target":34963
		},
		{
			"buffer":0,
			"byteLength":1584,
			"byteOffset":2904,
			"target":34962
		},
		{
			"buffer":0,
			"byteLength":1584,
			"byteOffset":4488,
			"target":34962
		},
		{
			"buffer":0,
			"byteLength":432,
			"byteOffset":6072,
			"target":34963
		},
		{
			"buffer":0,
			"byteLength":3144,
			"byteOffset":6504,
			"target":34962
		},
		{
			"buffer":0,
			"byteLength":3144,
			"byteOffset":9648,
			"target":34962
		},
		{
			"buffer":0,
			"byteLength":996,
			"byteOffset":12792,
			"target":34963
		},
		{
			"buffer":0,
			"byteLength":4752,
			"byteOffset":13788,
			"target":34962
		},
		{
			"buffer":0,
			"byteLength":4752,
			"byteOffset":18540,
			"target":34962
		},
		{
			"buffer":0,
			"byteLength":1392,
			"byteOffset":23292,
			"target":34963
		}
	],
	"buffers":[
		{
			"byteLength":24684,
			"uri":"data:application/octet-stream;base64,"
		}
	]
}
