{
	"asset":{
		"generator":"Khronos glTF Blender I/O v3.6.28",
		"version":"2.0"
	},
	"scene":0,
	"scenes":[
		{
			"name":"Scene",
			"nodes":[
				0
			]
		}
	],
	"nodes":[
		{
			"mesh":0,
			"name":"Props_Vessel_Tall"
		}
	],
	"materials":[
		{
			"doubleSided":true,
			"name":"Main",
			"pbrMetallicRoughness":{
				"baseColorFactor":[
					0.40196332335472107,
					0.40196332335472107,
					0.40196332335472107,
					1
				],
				"metallicFactor":0,
				"roughnessFactor":0.5
			}
		},
		{
			"doubleSided":true,
			"name":"Accent",
			"pbrMetallicRoughness":{
				"baseColorFactor":[
					0.559592604637146,
					0.29767245054244995,
					0.06678982824087143,
					1
				],
				"metallicFactor":0,
				"roughnessFactor":0.5
			}
		},
		{
			"doubleSided":true,
			"name":"DarkGrey",
			"pbrMetallicRoughness":{
				"baseColorFactor":[
					0.23954731225967407,
					0.23954731225967407,
					0.23954731225967407,
					1
				],
				"metallicFactor":0,
				"roughnessFactor":0.5
			}
		}
	],
	"meshes":[
		{
			"name":"Cube.033",
			"primitives":[
				{
					"attributes":{
						"POSITION":0,
						"NORMAL":1
					},
					"indices":2,
					"material":0
				},
				{
					"attributes":{
						"POSITION":3,
						"NORMAL":4
					},
					"indices":5,
					"material":1
				},
				{
					"attributes":{
						"POSITION":6,
						"NORMAL":7
					},
					"indices":8,
					"material":2
				}
			]
		}
	],
	"accessors":[
		{
			"bufferView":0,
			"componentType":5126,
			"count":544,
			"max":[
				0.14365504682064056,
				1.0215989351272583,
				0.14365491271018982
			],
			"min":[
				-0.143654927611351,
				-0.0011273622512817383,
				-0.14365489780902863
			],
			"type":"VEC3"
		},
		{
			"bufferView":1,
			"componentType":5126,
			"count":544,
			"type":"VEC3"
		},
		{
			"bufferView":2,
			"componentType":5123,
			"count":816,
			"type":"SCALAR"
		},
		{
			"bufferView":3,
			"componentType":5126,
			"count":64,
			"max":[
				0.13491228222846985,
				0.9116734266281128,
				0.13491219282150269
			],
			"min":[
				-0.13491220772266388,
				0.108798086643219,
				-0.1349121779203415
			],
			"type":"VEC3"
		},
		{
			"bufferView":4,
			"componentType":5126,
			"count":64,
			"type":"VEC3"
		},
		{
			"bufferView":5,
			"componentType":5123,
			"count":96,
			"type":"SCALAR"
		},
		{
			"bufferView":6,
			"componentType":5126,
			"count":16,
			"max":[
				0.05932988226413727,
				1.0021592378616333,
				0.05932975187897682
			],
			"min":[
				-0.05932973325252533,
				0.018312275409698486,
				-0.059329740703105927
			],
			"type":"VEC3"
		},
		{
			"bufferView":7,
			"componentType":5126,
			"count":16,
			"type":"VEC3"
		},
		{
			"bufferView":8,
			"componentType":5123,
			"count":36,
			"type":"SCALAR"
		}
	],
	"bufferViews":[
		{
			"buffer":0,
			"byteLength":6528,
			"byteOffset":0,
			"target":34962
		},
		{
			"buffer":0,
			"byteLength":6528,
			"byteOffset":6528,
			"target":34962
		},
		{
			"buffer":0,
			"byteLength":1632,
			"byteOffset":13056,
			"target":34963
		},
		{
			"buffer":0,
			"byteLength":768,
			"byteOffset":14688,
			"target":34962
		},
		{
			"buffer":0,
			"byteLength":768,
			"byteOffset":15456,
			"target":34962
		},
		{
			"buffer":0,
			"byteLength":192,
			"byteOffset":16224,
			"target":34963
		},
		{
			"buffer":0,
			"byteLength":192,
			"byteOffset":16416,
			"target":34962
		},
		{
			"buffer":0,
			"byteLength":192,
			"byteOffset":16608,
			"target":34962
		},
		{
			"buffer":0,
			"byteLength":72,
			"byteOffset":16800,
			"target":34963
		}
	],
	"buffers":[
		{
			"byteLength":16872,
			"uri":"data:application/octet-stream;base64,"
		}
	]
}
