{
	"asset":{
		"generator":"Khronos glTF Blender I/O v3.6.28",
		"version":"2.0"
	},
	"scene":0,
	"scenes":[
		{
			"name":"Scene",
			"nodes":[
				0
			]
		}
	],
	"nodes":[
		{
			"mesh":0,
			"name":"Props_CrateLong"
		}
	],
	"materials":[
		{
			"doubleSided":true,
			"name":"Main",
			"pbrMetallicRoughness":{
				"baseColorFactor":[
					0.40196332335472107,
					0.40196332335472107,
					0.40196332335472107,
					1
				],
				"metallicFactor":0,
				"roughnessFactor":0.5
			}
		},
		{
			"doubleSided":true,
			"name":"Accent",
			"pbrMetallicRoughness":{
				"baseColorFactor":[
					0.559592604637146,
					0.29767245054244995,
					0.06678982824087143,
					1
				],
				"metallicFactor":0,
				"roughnessFactor":0.5
			}
		},
		{
			"doubleSided":true,
			"name":"DarkGrey",
			"pbrMetallicRoughness":{
				"baseColorFactor":[
					0.23954731225967407,
					0.23954731225967407,
					0.23954731225967407,
					1
				],
				"metallicFactor":0,
				"roughnessFactor":0.5
			}
		},
		{
			"doubleSided":true,
			"name":"DarkAccent",
			"pbrMetallicRoughness":{
				"baseColorFactor":[
					0.226578950881958,
					0.12337818741798401,
					0.030147360637784004,
					1
				],
				"metallicFactor":0,
				"roughnessFactor":0.5
			}
		},
		{
			"doubleSided":true,
			"name":"Black",
			"pbrMetallicRoughness":{
				"baseColorFactor":[
					0.04202548414468765,
					0.04202548414468765,
					0.04202548414468765,
					1
				],
				"metallicFactor":0,
				"roughnessFactor":0.5
			}
		}
	],
	"meshes":[
		{
			"name":"Cube.021",
			"primitives":[
				{
					"attributes":{
						"POSITION":0,
						"NORMAL":1
					},
					"indices":2,
					"material":0
				},
				{
					"attributes":{
						"POSITION":3,
						"NORMAL":4
					},
					"indices":5,
					"material":1
				},
				{
					"attributes":{
						"POSITION":6,
						"NORMAL":7
					},
					"indices":8,
					"material":2
				},
				{
					"attributes":{
						"POSITION":9,
						"NORMAL":10
					},
					"indices":11,
					"material":3
				},
				{
					"attributes":{
						"POSITION":12,
						"NORMAL":13
					},
					"indices":14,
					"material":4
				}
			]
		}
	],
	"accessors":[
		{
			"bufferView":0,
			"componentType":5126,
			"count":1856,
			"max":[
				0.6096581220626831,
				0.771121621131897,
				0.38470399379730225
			],
			"min":[
				-0.6151512861251831,
				0.001336127519607544,
				-0.38508138060569763
			],
			"type":"VEC3"
		},
		{
			"bufferView":1,
			"componentType":5126,
			"count":1856,
			"type":"VEC3"
		},
		{
			"bufferView":2,
			"componentType":5123,
			"count":3132,
			"type":"SCALAR"
		},
		{
			"bufferView":3,
			"componentType":5126,
			"count":936,
			"max":[
				0.5985631346702576,
				0.7630915641784668,
				0.3766763210296631
			],
			"min":[
				-0.6040563583374023,
				0.009366244077682495,
				-0.37704896926879883
			],
			"type":"VEC3"
		},
		{
			"bufferView":4,
			"componentType":5126,
			"count":936,
			"type":"VEC3"
		},
		{
			"bufferView":5,
			"componentType":5123,
			"count":1896,
			"type":"SCALAR"
		},
		{
			"bufferView":6,
			"componentType":5126,
			"count":88,
			"max":[
				0.41453683376312256,
				0.7452542781829834,
				0.35885950922966003
			],
			"min":[
				-0.42002999782562256,
				0.027203500270843506,
				-0.3591911792755127
			],
			"type":"VEC3"
		},
		{
			"bufferView":7,
			"componentType":5126,
			"count":88,
			"type":"VEC3"
		},
		{
			"bufferView":8,
			"componentType":5123,
			"count":144,
			"type":"SCALAR"
		},
		{
			"bufferView":9,
			"componentType":5126,
			"count":2432,
			"max":[
				0.6137292385101318,
				0.7335035800933838,
				0.34708595275878906
			],
			"min":[
				-0.6192223429679871,
				0.03895425796508789,
				-0.34746336936950684
			],
			"type":"VEC3"
		},
		{
			"bufferView":10,
			"componentType":5126,
			"count":2432,
			"type":"VEC3"
		},
		{
			"bufferView":11,
			"componentType":5123,
			"count":3792,
			"type":"SCALAR"
		},
		{
			"bufferView":12,
			"componentType":5126,
			"count":160,
			"max":[
				0.5821782350540161,
				0.7127904891967773,
				0.3263729214668274
			],
			"min":[
				-0.5876713395118713,
				0.059667348861694336,
				-0.3267502188682556
			],
			"type":"VEC3"
		},
		{
			"bufferView":13,
			"componentType":5126,
			"count":160,
			"type":"VEC3"
		},
		{
			"bufferView":14,
			"componentType":5123,
			"count":396,
			"type":"SCALAR"
		}
	],
	"bufferViews":[
		{
			"buffer":0,
			"byteLength":22272,
			"byteOffset":0,
			"target":34962
		},
		{
			"buffer":0,
			"byteLength":22272,
			"byteOffset":22272,
			"target":34962
		},
		{
			"buffer":0,
			"byteLength":6264,
			"byteOffset":44544,
			"target":34963
		},
		{
			"buffer":0,
			"byteLength":11232,
			"byteOffset":50808,
			"target":34962
		},
		{
			"buffer":0,
			"byteLength":11232,
			"byteOffset":62040,
			"target":34962
		},
		{
			"buffer":0,
			"byteLength":3792,
			"byteOffset":73272,
			"target":34963
		},
		{
			"buffer":0,
			"byteLength":1056,
			"byteOffset":77064,
			"target":34962
		},
		{
			"buffer":0,
			"byteLength":1056,
			"byteOffset":78120,
			"target":34962
		},
		{
			"buffer":0,
			"byteLength":288,
			"byteOffset":79176,
			"target":34963
		},
		{
			"buffer":0,
			"byteLength":29184,
			"byteOffset":79464,
			"target":34962
		},
		{
			"buffer":0,
			"byteLength":29184,
			"byteOffset":108648,
			"target":34962
		},
		{
			"buffer":0,
			"byteLength":7584,
			"byteOffset":137832,
			"target":34963
		},
		{
			"buffer":0,
			"byteLength":1920,
			"byteOffset":145416,
			"target":34962
		},
		{
			"buffer":0,
			"byteLength":1920,
			"byteOffset":147336,
			"target":34962
		},
		{
			"buffer":0,
			"byteLength":792,
			"byteOffset":149256,
			"target":34963
		}
	],
	"buffers":[
		{
			"byteLength":150048,
			"uri":"data:application/octet-stream;base64,"
		}
	]
}
