{
	"asset":{
		"generator":"Khronos glTF Blender I/O v3.6.28",
		"version":"2.0"
	},
	"scene":0,
	"scenes":[
		{
			"name":"Scene",
			"nodes":[
				0
			]
		}
	],
	"nodes":[
		{
			"mesh":0,
			"name":"RoofTile_Corner_Pipes"
		}
	],
	"materials":[
		{
			"doubleSided":true,
			"name":"Accent",
			"pbrMetallicRoughness":{
				"baseColorFactor":[
					0.559592604637146,
					0.29767245054244995,
					0.06678982824087143,
					1
				],
				"metallicFactor":0,
				"roughnessFactor":0.5
			}
		},
		{
			"doubleSided":true,
			"name":"Black",
			"pbrMetallicRoughness":{
				"baseColorFactor":[
					0.04202548414468765,
					0.04202548414468765,
					0.04202548414468765,
					1
				],
				"metallicFactor":0,
				"roughnessFactor":0.5
			}
		},
		{
			"doubleSided":true,
			"name":"Main",
			"pbrMetallicRoughness":{
				"baseColorFactor":[
					0.40196332335472107,
					0.40196332335472107,
					0.40196332335472107,
					1
				],
				"metallicFactor":0,
				"roughnessFactor":0.5
			}
		},
		{
			"doubleSided":true,
			"name":"DarkGrey",
			"pbrMetallicRoughness":{
				"baseColorFactor":[
					0.23954731225967407,
					0.23954731225967407,
					0.23954731225967407,
					1
				],
				"metallicFactor":0,
				"roughnessFactor":0.5
			}
		}
	],
	"meshes":[
		{
			"name":"Plane.110",
			"primitives":[
				{
					"attributes":{
						"POSITION":0,
						"NORMAL":1
					},
					"indices":2,
					"material":0
				},
				{
					"attributes":{
						"POSITION":3,
						"NORMAL":4
					},
					"indices":5,
					"material":1
				},
				{
					"attributes":{
						"POSITION":6,
						"NORMAL":7
					},
					"indices":8,
					"material":2
				},
				{
					"attributes":{
						"POSITION":9,
						"NORMAL":10
					},
					"indices":11,
					"material":3
				}
			]
		}
	],
	"accessors":[
		{
			"bufferView":0,
			"componentType":5126,
			"count":448,
			"max":[
				0.3522116541862488,
				0.04632456973195076,
				0.790503978729248
			],
			"min":[
				-0.8074445724487305,
				-0.04156138747930527,
				-0.3166908323764801
			],
			"type":"VEC3"
		},
		{
			"bufferView":1,
			"componentType":5126,
			"count":448,
			"type":"VEC3"
		},
		{
			"bufferView":2,
			"componentType":5123,
			"count":672,
			"type":"SCALAR"
		},
		{
			"bufferView":3,
			"componentType":5126,
			"count":5,
			"max":[
				0.3379855155944824,
				-0.03298250585794449,
				0.8190035223960876
			],
			"min":[
				-0.8190031051635742,
				-0.03298335149884224,
				-0.33839941024780273
			],
			"type":"VEC3"
		},
		{
			"bufferView":4,
			"componentType":5126,
			"count":5,
			"type":"VEC3"
		},
		{
			"bufferView":5,
			"componentType":5123,
			"count":9,
			"type":"SCALAR"
		},
		{
			"bufferView":6,
			"componentType":5126,
			"count":60,
			"max":[
				1,
				0.05943029746413231,
				1
			],
			"min":[
				-1,
				-0.0390007309615612,
				-1
			],
			"type":"VEC3"
		},
		{
			"bufferView":7,
			"componentType":5126,
			"count":60,
			"type":"VEC3"
		},
		{
			"bufferView":8,
			"componentType":5123,
			"count":102,
			"type":"SCALAR"
		},
		{
			"bufferView":9,
			"componentType":5126,
			"count":402,
			"max":[
				0.9474878311157227,
				0.07310623675584793,
				0.9474879503250122
			],
			"min":[
				-0.9474878311157227,
				-0.040209587663412094,
				-0.9474879503250122
			],
			"type":"VEC3"
		},
		{
			"bufferView":10,
			"componentType":5126,
			"count":402,
			"type":"VEC3"
		},
		{
			"bufferView":11,
			"componentType":5123,
			"count":687,
			"type":"SCALAR"
		}
	],
	"bufferViews":[
		{
			"buffer":0,
			"byteLength":5376,
			"byteOffset":0,
			"target":34962
		},
		{
			"buffer":0,
			"byteLength":5376,
			"byteOffset":5376,
			"target":34962
		},
		{
			"buffer":0,
			"byteLength":1344,
			"byteOffset":10752,
			"target":34963
		},
		{
			"buffer":0,
			"byteLength":60,
			"byteOffset":12096,
			"target":34962
		},
		{
			"buffer":0,
			"byteLength":60,
			"byteOffset":12156,
			"target":34962
		},
		{
			"buffer":0,
			"byteLength":18,
			"byteOffset":12216,
			"target":34963
		},
		{
			"buffer":0,
			"byteLength":720,
			"byteOffset":12236,
			"target":34962
		},
		{
			"buffer":0,
			"byteLength":720,
			"byteOffset":12956,
			"target":34962
		},
		{
			"buffer":0,
			"byteLength":204,
			"byteOffset":13676,
			"target":34963
		},
		{
			"buffer":0,
			"byteLength":4824,
			"byteOffset":13880,
			"target":34962
		},
		{
			"buffer":0,
			"byteLength":4824,
			"byteOffset":18704,
			"target":34962
		},
		{
			"buffer":0,
			"byteLength":1374,
			"byteOffset":23528,
			"target":34963
		}
	],
	"buffers":[
		{
			"byteLength":24904,
			"uri":"data:application/octet-stream;base64,"
		}
	]
}
