{
	"asset":{
		"generator":"Khronos glTF Blender I/O v3.6.28",
		"version":"2.0"
	},
	"scene":0,
	"scenes":[
		{
			"name":"Scene",
			"nodes":[
				0
			]
		}
	],
	"nodes":[
		{
			"mesh":0,
			"name":"RoofTile_Plate2"
		}
	],
	"materials":[
		{
			"doubleSided":true,
			"name":"Accent",
			"pbrMetallicRoughness":{
				"baseColorFactor":[
					0.559592604637146,
					0.29767245054244995,
					0.06678982824087143,
					1
				],
				"metallicFactor":0,
				"roughnessFactor":0.5
			}
		},
		{
			"doubleSided":true,
			"name":"Main",
			"pbrMetallicRoughness":{
				"baseColorFactor":[
					0.40196332335472107,
					0.40196332335472107,
					0.40196332335472107,
					1
				],
				"metallicFactor":0,
				"roughnessFactor":0.5
			}
		},
		{
			"doubleSided":true,
			"name":"DarkGrey",
			"pbrMetallicRoughness":{
				"baseColorFactor":[
					0.23954731225967407,
					0.23954731225967407,
					0.23954731225967407,
					1
				],
				"metallicFactor":0,
				"roughnessFactor":0.5
			}
		}
	],
	"meshes":[
		{
			"name":"Plane.118",
			"primitives":[
				{
					"attributes":{
						"POSITION":0,
						"NORMAL":1
					},
					"indices":2,
					"material":0
				},
				{
					"attributes":{
						"POSITION":3,
						"NORMAL":4
					},
					"indices":5,
					"material":1
				},
				{
					"attributes":{
						"POSITION":6,
						"NORMAL":7
					},
					"indices":8,
					"material":2
				}
			]
		}
	],
	"accessors":[
		{
			"bufferView":0,
			"componentType":5126,
			"count":384,
			"max":[
				0.7960774302482605,
				0.0804317444562912,
				0.7956154942512512
			],
			"min":[
				-0.7962483167648315,
				0.02638264000415802,
				-0.7967103719711304
			],
			"type":"VEC3"
		},
		{
			"bufferView":1,
			"componentType":5126,
			"count":384,
			"type":"VEC3"
		},
		{
			"bufferView":2,
			"componentType":5123,
			"count":672,
			"type":"SCALAR"
		},
		{
			"bufferView":3,
			"componentType":5126,
			"count":252,
			"max":[
				1,
				0.07310567051172256,
				1
			],
			"min":[
				-1,
				-0.004232235252857208,
				-1
			],
			"type":"VEC3"
		},
		{
			"bufferView":4,
			"componentType":5126,
			"count":252,
			"type":"VEC3"
		},
		{
			"bufferView":5,
			"componentType":5123,
			"count":474,
			"type":"SCALAR"
		},
		{
			"bufferView":6,
			"componentType":5126,
			"count":104,
			"max":[
				0.8190031051635742,
				0.08928628265857697,
				0.8190035223960876
			],
			"min":[
				-0.8190035820007324,
				0.033287666738033295,
				-0.8190035223960876
			],
			"type":"VEC3"
		},
		{
			"bufferView":7,
			"componentType":5126,
			"count":104,
			"type":"VEC3"
		},
		{
			"bufferView":8,
			"componentType":5123,
			"count":162,
			"type":"SCALAR"
		}
	],
	"bufferViews":[
		{
			"buffer":0,
			"byteLength":4608,
			"byteOffset":0,
			"target":34962
		},
		{
			"buffer":0,
			"byteLength":4608,
			"byteOffset":4608,
			"target":34962
		},
		{
			"buffer":0,
			"byteLength":1344,
			"byteOffset":9216,
			"target":34963
		},
		{
			"buffer":0,
			"byteLength":3024,
			"byteOffset":10560,
			"target":34962
		},
		{
			"buffer":0,
			"byteLength":3024,
			"byteOffset":13584,
			"target":34962
		},
		{
			"buffer":0,
			"byteLength":948,
			"byteOffset":16608,
			"target":34963
		},
		{
			"buffer":0,
			"byteLength":1248,
			"byteOffset":17556,
			"target":34962
		},
		{
			"buffer":0,
			"byteLength":1248,
			"byteOffset":18804,
			"target":34962
		},
		{
			"buffer":0,
			"byteLength":324,
			"byteOffset":20052,
			"target":34963
		}
	],
	"buffers":[
		{
			"byteLength":20376,
			"uri":"data:application/octet-stream;base64,"
		}
	]
}
