{
	"asset":{
		"generator":"Khronos glTF Blender I/O v3.6.28",
		"version":"2.0"
	},
	"scene":0,
	"scenes":[
		{
			"name":"Scene",
			"nodes":[
				0
			]
		}
	],
	"nodes":[
		{
			"mesh":0,
			"name":"Details_Pipes_Small"
		}
	],
	"materials":[
		{
			"doubleSided":true,
			"name":"DarkGrey",
			"pbrMetallicRoughness":{
				"baseColorFactor":[
					0.23954731225967407,
					0.23954731225967407,
					0.23954731225967407,
					1
				],
				"metallicFactor":0,
				"roughnessFactor":0.5
			}
		},
		{
			"doubleSided":true,
			"name":"Accent",
			"pbrMetallicRoughness":{
				"baseColorFactor":[
					0.559592604637146,
					0.29767245054244995,
					0.06678982824087143,
					1
				],
				"metallicFactor":0,
				"roughnessFactor":0.5
			}
		},
		{
			"doubleSided":true,
			"name":"DarkAccent",
			"pbrMetallicRoughness":{
				"baseColorFactor":[
					0.226578950881958,
					0.12337818741798401,
					0.030147360637784004,
					1
				],
				"metallicFactor":0,
				"roughnessFactor":0.5
			}
		},
		{
			"doubleSided":true,
			"name":"Black",
			"pbrMetallicRoughness":{
				"baseColorFactor":[
					0.04202548414468765,
					0.04202548414468765,
					0.04202548414468765,
					1
				],
				"metallicFactor":0,
				"roughnessFactor":0.5
			}
		}
	],
	"meshes":[
		{
			"name":"Cube.057",
			"primitives":[
				{
					"attributes":{
						"POSITION":0,
						"NORMAL":1
					},
					"indices":2,
					"material":0
				},
				{
					"attributes":{
						"POSITION":3,
						"NORMAL":4
					},
					"indices":5,
					"material":1
				},
				{
					"attributes":{
						"POSITION":6,
						"NORMAL":7
					},
					"indices":8,
					"material":2
				},
				{
					"attributes":{
						"POSITION":9,
						"NORMAL":10
					},
					"indices":11,
					"material":3
				}
			]
		}
	],
	"accessors":[
		{
			"bufferView":0,
			"componentType":5126,
			"count":352,
			"max":[
				0.17042309045791626,
				0.0963631123304367,
				0.05408698692917824
			],
			"min":[
				-0.12180855125188828,
				-0.09636358916759491,
				-0.048603981733322144
			],
			"type":"VEC3"
		},
		{
			"bufferView":1,
			"componentType":5126,
			"count":352,
			"type":"VEC3"
		},
		{
			"bufferView":2,
			"componentType":5123,
			"count":1056,
			"type":"SCALAR"
		},
		{
			"bufferView":3,
			"componentType":5126,
			"count":64,
			"max":[
				0.14170867204666138,
				0.08320014178752899,
				0.04092419520020485
			],
			"min":[
				-0.10254553705453873,
				-0.08320048451423645,
				-0.035441186279058456
			],
			"type":"VEC3"
		},
		{
			"bufferView":4,
			"componentType":5126,
			"count":64,
			"type":"VEC3"
		},
		{
			"bufferView":5,
			"componentType":5123,
			"count":192,
			"type":"SCALAR"
		},
		{
			"bufferView":6,
			"componentType":5126,
			"count":72,
			"max":[
				0.19680282473564148,
				0.12308143824338913,
				0.045977260917425156
			],
			"min":[
				-0.15358400344848633,
				-0.12308204919099808,
				-0.056106891483068466
			],
			"type":"VEC3"
		},
		{
			"bufferView":7,
			"componentType":5126,
			"count":72,
			"type":"VEC3"
		},
		{
			"bufferView":8,
			"componentType":5123,
			"count":216,
			"type":"SCALAR"
		},
		{
			"bufferView":9,
			"componentType":5126,
			"count":12,
			"max":[
				0.15722495317459106,
				0.09527610242366791,
				-0.051320936530828476
			],
			"min":[
				-0.11400611698627472,
				-0.09527669847011566,
				-0.05132095515727997
			],
			"type":"VEC3"
		},
		{
			"bufferView":10,
			"componentType":5126,
			"count":12,
			"type":"VEC3"
		},
		{
			"bufferView":11,
			"componentType":5123,
			"count":30,
			"type":"SCALAR"
		}
	],
	"bufferViews":[
		{
			"buffer":0,
			"byteLength":4224,
			"byteOffset":0,
			"target":34962
		},
		{
			"buffer":0,
			"byteLength":4224,
			"byteOffset":4224,
			"target":34962
		},
		{
			"buffer":0,
			"byteLength":2112,
			"byteOffset":8448,
			"target":34963
		},
		{
			"buffer":0,
			"byteLength":768,
			"byteOffset":10560,
			"target":34962
		},
		{
			"buffer":0,
			"byteLength":768,
			"byteOffset":11328,
			"target":34962
		},
		{
			"buffer":0,
			"byteLength":384,
			"byteOffset":12096,
			"target":34963
		},
		{
			"buffer":0,
			"byteLength":864,
			"byteOffset":12480,
			"target":34962
		},
		{
			"buffer":0,
			"byteLength":864,
			"byteOffset":13344,
			"target":34962
		},
		{
			"buffer":0,
			"byteLength":432,
			"byteOffset":14208,
			"target":34963
		},
		{
			"buffer":0,
			"byteLength":144,
			"byteOffset":14640,
			"target":34962
		},
		{
			"buffer":0,
			"byteLength":144,
			"byteOffset":14784,
			"target":34962
		},
		{
			"buffer":0,
			"byteLength":60,
			"byteOffset":14928,
			"target":34963
		}
	],
	"buffers":[
		{
			"byteLength":14988,
			"uri":"data:application/octet-stream;base64,"
		}
	]
}
