{
	"asset":{
		"generator":"Khronos glTF Blender I/O v3.6.28",
		"version":"2.0"
	},
	"scene":0,
	"scenes":[
		{
			"name":"Scene",
			"nodes":[
				0
			]
		}
	],
	"nodes":[
		{
			"mesh":0,
			"name":"Details_Basic_3"
		}
	],
	"materials":[
		{
			"doubleSided":true,
			"name":"Main",
			"pbrMetallicRoughness":{
				"baseColorFactor":[
					0.40196332335472107,
					0.40196332335472107,
					0.40196332335472107,
					1
				],
				"metallicFactor":0,
				"roughnessFactor":0.5
			}
		}
	],
	"meshes":[
		{
			"name":"Cube.055",
			"primitives":[
				{
					"attributes":{
						"POSITION":0,
						"NORMAL":1
					},
					"indices":2,
					"material":0
				}
			]
		}
	],
	"accessors":[
		{
			"bufferView":0,
			"componentType":5126,
			"count":96,
			"max":[
				0.15494941174983978,
				0.16955003142356873,
				0.01204555481672287
			],
			"min":[
				-0.15494945645332336,
				-0.14034874737262726,
				-0.02922801859676838
			],
			"type":"VEC3"
		},
		{
			"bufferView":1,
			"componentType":5126,
			"count":96,
			"type":"VEC3"
		},
		{
			"bufferView":2,
			"componentType":5123,
			"count":168,
			"type":"SCALAR"
		}
	],
	"bufferViews":[
		{
			"buffer":0,
			"byteLength":1152,
			"byteOffset":0,
			"target":34962
		},
		{
			"buffer":0,
			"byteLength":1152,
			"byteOffset":1152,
			"target":34962
		},
		{
			"buffer":0,
			"byteLength":336,
			"byteOffset":2304,
			"target":34963
		}
	],
	"buffers":[
		{
			"byteLength":2640,
			"uri":"data:application/octet-stream;base64,"
		}
	]
}
