{
	"asset":{
		"generator":"Khronos glTF Blender I/O v3.6.28",
		"version":"2.0"
	},
	"scene":0,
	"scenes":[
		{
			"name":"Scene",
			"nodes":[
				0
			]
		}
	],
	"nodes":[
		{
			"mesh":0,
			"name":"Details_Basic_1"
		}
	],
	"materials":[
		{
			"doubleSided":true,
			"name":"Main",
			"pbrMetallicRoughness":{
				"baseColorFactor":[
					0.40196332335472107,
					0.40196332335472107,
					0.40196332335472107,
					1
				],
				"metallicFactor":0,
				"roughnessFactor":0.5
			}
		},
		{
			"doubleSided":true,
			"name":"DarkGrey",
			"pbrMetallicRoughness":{
				"baseColorFactor":[
					0.23954731225967407,
					0.23954731225967407,
					0.23954731225967407,
					1
				],
				"metallicFactor":0,
				"roughnessFactor":0.5
			}
		}
	],
	"meshes":[
		{
			"name":"Cylinder.023",
			"primitives":[
				{
					"attributes":{
						"POSITION":0,
						"NORMAL":1
					},
					"indices":2,
					"material":0
				},
				{
					"attributes":{
						"POSITION":3,
						"NORMAL":4
					},
					"indices":5,
					"material":1
				}
			]
		}
	],
	"accessors":[
		{
			"bufferView":0,
			"componentType":5126,
			"count":90,
			"max":[
				0.13496063649654388,
				0.13496077060699463,
				3.7829792631782766e-08
			],
			"min":[
				-0.13496063649654388,
				-0.13496050238609314,
				-0.039909884333610535
			],
			"type":"VEC3"
		},
		{
			"bufferView":1,
			"componentType":5126,
			"count":90,
			"type":"VEC3"
		},
		{
			"bufferView":2,
			"componentType":5123,
			"count":156,
			"type":"SCALAR"
		},
		{
			"bufferView":3,
			"componentType":5126,
			"count":80,
			"max":[
				0.03479255363345146,
				0.03479255363345146,
				0.010366538539528847
			],
			"min":[
				-0.03479255363345146,
				-0.03479255363345146,
				-0.005345306359231472
			],
			"type":"VEC3"
		},
		{
			"bufferView":4,
			"componentType":5126,
			"count":80,
			"type":"VEC3"
		},
		{
			"bufferView":5,
			"componentType":5123,
			"count":234,
			"type":"SCALAR"
		}
	],
	"bufferViews":[
		{
			"buffer":0,
			"byteLength":1080,
			"byteOffset":0,
			"target":34962
		},
		{
			"buffer":0,
			"byteLength":1080,
			"byteOffset":1080,
			"target":34962
		},
		{
			"buffer":0,
			"byteLength":312,
			"byteOffset":2160,
			"target":34963
		},
		{
			"buffer":0,
			"byteLength":960,
			"byteOffset":2472,
			"target":34962
		},
		{
			"buffer":0,
			"byteLength":960,
			"byteOffset":3432,
			"target":34962
		},
		{
			"buffer":0,
			"byteLength":468,
			"byteOffset":4392,
			"target":34963
		}
	],
	"buffers":[
		{
			"byteLength":4860,
			"uri":"data:application/octet-stream;base64,"
		}
	]
}
