{
	"asset":{
		"generator":"Khronos glTF Blender I/O v3.6.28",
		"version":"2.0"
	},
	"scene":0,
	"scenes":[
		{
			"name":"Scene",
			"nodes":[
				0
			]
		}
	],
	"nodes":[
		{
			"mesh":0,
			"name":"Details_Pipes_Medium"
		}
	],
	"materials":[
		{
			"doubleSided":true,
			"name":"Accent",
			"pbrMetallicRoughness":{
				"baseColorFactor":[
					0.559592604637146,
					0.29767245054244995,
					0.06678982824087143,
					1
				],
				"metallicFactor":0,
				"roughnessFactor":0.5
			}
		},
		{
			"doubleSided":true,
			"name":"DarkGrey",
			"pbrMetallicRoughness":{
				"baseColorFactor":[
					0.23954731225967407,
					0.23954731225967407,
					0.23954731225967407,
					1
				],
				"metallicFactor":0,
				"roughnessFactor":0.5
			}
		},
		{
			"doubleSided":true,
			"name":"DarkAccent",
			"pbrMetallicRoughness":{
				"baseColorFactor":[
					0.226578950881958,
					0.12337818741798401,
					0.030147360637784004,
					1
				],
				"metallicFactor":0,
				"roughnessFactor":0.5
			}
		},
		{
			"doubleSided":true,
			"name":"Black",
			"pbrMetallicRoughness":{
				"baseColorFactor":[
					0.04202548414468765,
					0.04202548414468765,
					0.04202548414468765,
					1
				],
				"metallicFactor":0,
				"roughnessFactor":0.5
			}
		}
	],
	"meshes":[
		{
			"name":"Plane.060",
			"primitives":[
				{
					"attributes":{
						"POSITION":0,
						"NORMAL":1
					},
					"indices":2,
					"material":0
				},
				{
					"attributes":{
						"POSITION":3,
						"NORMAL":4
					},
					"indices":5,
					"material":1
				},
				{
					"attributes":{
						"POSITION":6,
						"NORMAL":7
					},
					"indices":8,
					"material":2
				},
				{
					"attributes":{
						"POSITION":9,
						"NORMAL":10
					},
					"indices":11,
					"material":3
				}
			]
		}
	],
	"accessors":[
		{
			"bufferView":0,
			"componentType":5126,
			"count":128,
			"max":[
				0.21297380328178406,
				0.3209066689014435,
				0.07716048508882523
			],
			"min":[
				-0.20867910981178284,
				-0.30019065737724304,
				0.03073955327272415
			],
			"type":"VEC3"
		},
		{
			"bufferView":1,
			"componentType":5126,
			"count":128,
			"type":"VEC3"
		},
		{
			"bufferView":2,
			"componentType":5123,
			"count":192,
			"type":"SCALAR"
		},
		{
			"bufferView":3,
			"componentType":5126,
			"count":566,
			"max":[
				0.22897693514823914,
				0.35642126202583313,
				0.09316327422857285
			],
			"min":[
				-0.22468236088752747,
				-0.3508858382701874,
				0.03073955327272415
			],
			"type":"VEC3"
		},
		{
			"bufferView":4,
			"componentType":5126,
			"count":566,
			"type":"VEC3"
		},
		{
			"bufferView":5,
			"componentType":5123,
			"count":1056,
			"type":"SCALAR"
		},
		{
			"bufferView":6,
			"componentType":5126,
			"count":88,
			"max":[
				0.2571638524532318,
				0.38295701146125793,
				0.09175198525190353
			],
			"min":[
				-0.25716546177864075,
				-0.38295719027519226,
				-2.2351741790771484e-08
			],
			"type":"VEC3"
		},
		{
			"bufferView":7,
			"componentType":5126,
			"count":88,
			"type":"VEC3"
		},
		{
			"bufferView":8,
			"componentType":5123,
			"count":216,
			"type":"SCALAR"
		},
		{
			"bufferView":9,
			"componentType":5126,
			"count":12,
			"max":[
				0.22335925698280334,
				0.3348398506641388,
				0.03793676942586899
			],
			"min":[
				-0.2233608067035675,
				-0.3348400294780731,
				0.03793669492006302
			],
			"type":"VEC3"
		},
		{
			"bufferView":10,
			"componentType":5126,
			"count":12,
			"type":"VEC3"
		},
		{
			"bufferView":11,
			"componentType":5123,
			"count":30,
			"type":"SCALAR"
		}
	],
	"bufferViews":[
		{
			"buffer":0,
			"byteLength":1536,
			"byteOffset":0,
			"target":34962
		},
		{
			"buffer":0,
			"byteLength":1536,
			"byteOffset":1536,
			"target":34962
		},
		{
			"buffer":0,
			"byteLength":384,
			"byteOffset":3072,
			"target":34963
		},
		{
			"buffer":0,
			"byteLength":6792,
			"byteOffset":3456,
			"target":34962
		},
		{
			"buffer":0,
			"byteLength":6792,
			"byteOffset":10248,
			"target":34962
		},
		{
			"buffer":0,
			"byteLength":2112,
			"byteOffset":17040,
			"target":34963
		},
		{
			"buffer":0,
			"byteLength":1056,
			"byteOffset":19152,
			"target":34962
		},
		{
			"buffer":0,
			"byteLength":1056,
			"byteOffset":20208,
			"target":34962
		},
		{
			"buffer":0,
			"byteLength":432,
			"byteOffset":21264,
			"target":34963
		},
		{
			"buffer":0,
			"byteLength":144,
			"byteOffset":21696,
			"target":34962
		},
		{
			"buffer":0,
			"byteLength":144,
			"byteOffset":21840,
			"target":34962
		},
		{
			"buffer":0,
			"byteLength":60,
			"byteOffset":21984,
			"target":34963
		}
	],
	"buffers":[
		{
			"byteLength":22044,
			"uri":"data:application/octet-stream;base64,"
		}
	]
}
