{
	"asset":{
		"generator":"Khronos glTF Blender I/O v3.6.28",
		"version":"2.0"
	},
	"scene":0,
	"scenes":[
		{
			"name":"Scene",
			"nodes":[
				0
			]
		}
	],
	"nodes":[
		{
			"mesh":0,
			"name":"Details_Cylinder_Long"
		}
	],
	"materials":[
		{
			"doubleSided":true,
			"name":"Accent",
			"pbrMetallicRoughness":{
				"baseColorFactor":[
					0.559592604637146,
					0.29767245054244995,
					0.06678982824087143,
					1
				],
				"metallicFactor":0,
				"roughnessFactor":0.5
			}
		},
		{
			"doubleSided":true,
			"name":"DarkAccent",
			"pbrMetallicRoughness":{
				"baseColorFactor":[
					0.226578950881958,
					0.12337818741798401,
					0.030147360637784004,
					1
				],
				"metallicFactor":0,
				"roughnessFactor":0.5
			}
		}
	],
	"meshes":[
		{
			"name":"Cylinder.020",
			"primitives":[
				{
					"attributes":{
						"POSITION":0,
						"NORMAL":1
					},
					"indices":2,
					"material":0
				},
				{
					"attributes":{
						"POSITION":3,
						"NORMAL":4
					},
					"indices":5,
					"material":1
				}
			]
		}
	],
	"accessors":[
		{
			"bufferView":0,
			"componentType":5126,
			"count":198,
			"max":[
				0.5742201209068298,
				0.19137299060821533,
				0.19137299060821533
			],
			"min":[
				-0.21510252356529236,
				-0.19137300550937653,
				0.0004909432609565556
			],
			"type":"VEC3"
		},
		{
			"bufferView":1,
			"componentType":5126,
			"count":198,
			"type":"VEC3"
		},
		{
			"bufferView":2,
			"componentType":5123,
			"count":528,
			"type":"SCALAR"
		},
		{
			"bufferView":3,
			"componentType":5126,
			"count":274,
			"max":[
				0.5646575689315796,
				0.19137299060821533,
				0.19137297570705414
			],
			"min":[
				-0.20553995668888092,
				-0.19137300550937653,
				0.0004909432609565556
			],
			"type":"VEC3"
		},
		{
			"bufferView":4,
			"componentType":5126,
			"count":274,
			"type":"VEC3"
		},
		{
			"bufferView":5,
			"componentType":5123,
			"count":594,
			"type":"SCALAR"
		}
	],
	"bufferViews":[
		{
			"buffer":0,
			"byteLength":2376,
			"byteOffset":0,
			"target":34962
		},
		{
			"buffer":0,
			"byteLength":2376,
			"byteOffset":2376,
			"target":34962
		},
		{
			"buffer":0,
			"byteLength":1056,
			"byteOffset":4752,
			"target":34963
		},
		{
			"buffer":0,
			"byteLength":3288,
			"byteOffset":5808,
			"target":34962
		},
		{
			"buffer":0,
			"byteLength":3288,
			"byteOffset":9096,
			"target":34962
		},
		{
			"buffer":0,
			"byteLength":1188,
			"byteOffset":12384,
			"target":34963
		}
	],
	"buffers":[
		{
			"byteLength":13572,
			"uri":"data:application/octet-stream;base64,"
		}
	]
}
