{
	"asset":{
		"generator":"Khronos glTF Blender I/O v3.6.28",
		"version":"2.0"
	},
	"scene":0,
	"scenes":[
		{
			"name":"Scene",
			"nodes":[
				0
			]
		}
	],
	"nodes":[
		{
			"mesh":0,
			"name":"Details_Vent_1"
		}
	],
	"materials":[
		{
			"doubleSided":true,
			"name":"Black",
			"pbrMetallicRoughness":{
				"baseColorFactor":[
					0.04202548414468765,
					0.04202548414468765,
					0.04202548414468765,
					1
				],
				"metallicFactor":0,
				"roughnessFactor":0.5
			}
		},
		{
			"doubleSided":true,
			"name":"Accent",
			"pbrMetallicRoughness":{
				"baseColorFactor":[
					0.559592604637146,
					0.29767245054244995,
					0.06678982824087143,
					1
				],
				"metallicFactor":0,
				"roughnessFactor":0.5
			}
		},
		{
			"doubleSided":true,
			"name":"DarkAccent",
			"pbrMetallicRoughness":{
				"baseColorFactor":[
					0.226578950881958,
					0.12337818741798401,
					0.030147360637784004,
					1
				],
				"metallicFactor":0,
				"roughnessFactor":0.5
			}
		}
	],
	"meshes":[
		{
			"name":"Cube.053",
			"primitives":[
				{
					"attributes":{
						"POSITION":0,
						"NORMAL":1
					},
					"indices":2,
					"material":0
				},
				{
					"attributes":{
						"POSITION":3,
						"NORMAL":4
					},
					"indices":5,
					"material":1
				},
				{
					"attributes":{
						"POSITION":6,
						"NORMAL":7
					},
					"indices":8,
					"material":2
				}
			]
		}
	],
	"accessors":[
		{
			"bufferView":0,
			"componentType":5126,
			"count":8,
			"max":[
				0.2131974697113037,
				0.09528423100709915,
				-0.005252964328974485
			],
			"min":[
				-0.2131974697113037,
				-0.09714092314243317,
				-0.00525303091853857
			],
			"type":"VEC3"
		},
		{
			"bufferView":1,
			"componentType":5126,
			"count":8,
			"type":"VEC3"
		},
		{
			"bufferView":2,
			"componentType":5123,
			"count":18,
			"type":"SCALAR"
		},
		{
			"bufferView":3,
			"componentType":5126,
			"count":168,
			"max":[
				0.2632449269294739,
				0.15402109920978546,
				0.014276797883212566
			],
			"min":[
				-0.26324495673179626,
				-0.15587778389453888,
				-0.026996813714504242
			],
			"type":"VEC3"
		},
		{
			"bufferView":4,
			"componentType":5126,
			"count":168,
			"type":"VEC3"
		},
		{
			"bufferView":5,
			"componentType":5123,
			"count":306,
			"type":"SCALAR"
		},
		{
			"bufferView":6,
			"componentType":5126,
			"count":112,
			"max":[
				0.22024334967136383,
				0.09320975840091705,
				0.004802350420504808
			],
			"min":[
				-0.22024334967136383,
				-0.09183808416128159,
				-0.0075154658406972885
			],
			"type":"VEC3"
		},
		{
			"bufferView":7,
			"componentType":5126,
			"count":112,
			"type":"VEC3"
		},
		{
			"bufferView":8,
			"componentType":5123,
			"count":168,
			"type":"SCALAR"
		}
	],
	"bufferViews":[
		{
			"buffer":0,
			"byteLength":96,
			"byteOffset":0,
			"target":34962
		},
		{
			"buffer":0,
			"byteLength":96,
			"byteOffset":96,
			"target":34962
		},
		{
			"buffer":0,
			"byteLength":36,
			"byteOffset":192,
			"target":34963
		},
		{
			"buffer":0,
			"byteLength":2016,
			"byteOffset":228,
			"target":34962
		},
		{
			"buffer":0,
			"byteLength":2016,
			"byteOffset":2244,
			"target":34962
		},
		{
			"buffer":0,
			"byteLength":612,
			"byteOffset":4260,
			"target":34963
		},
		{
			"buffer":0,
			"byteLength":1344,
			"byteOffset":4872,
			"target":34962
		},
		{
			"buffer":0,
			"byteLength":1344,
			"byteOffset":6216,
			"target":34962
		},
		{
			"buffer":0,
			"byteLength":336,
			"byteOffset":7560,
			"target":34963
		}
	],
	"buffers":[
		{
			"byteLength":7896,
			"uri":"data:application/octet-stream;base64,"
		}
	]
}
