{
	"asset":{
		"generator":"Khronos glTF Blender I/O v3.6.28",
		"version":"2.0"
	},
	"extensionsUsed":[
		"KHR_materials_emissive_strength"
	],
	"scene":0,
	"scenes":[
		{
			"name":"Scene",
			"nodes":[
				0
			]
		}
	],
	"nodes":[
		{
			"mesh":0,
			"name":"ThreeWindows_Wall_SideA"
		}
	],
	"materials":[
		{
			"doubleSided":true,
			"name":"Main",
			"pbrMetallicRoughness":{
				"baseColorFactor":[
					0.40196332335472107,
					0.40196332335472107,
					0.40196332335472107,
					1
				],
				"metallicFactor":0,
				"roughnessFactor":0.5
			}
		},
		{
			"doubleSided":true,
			"name":"Accent",
			"pbrMetallicRoughness":{
				"baseColorFactor":[
					0.559592604637146,
					0.29767245054244995,
					0.06678982824087143,
					1
				],
				"metallicFactor":0,
				"roughnessFactor":0.5
			}
		},
		{
			"doubleSided":true,
			"emissiveFactor":[
				1,
				0.8120468854904175,
				0.3343311548233032
			],
			"extensions":{
				"KHR_materials_emissive_strength":{
					"emissiveStrength":3.0999999046325684
				}
			},
			"name":"Light",
			"pbrMetallicRoughness":{
				"baseColorFactor":[
					0,
					0,
					0,
					1
				]
			}
		},
		{
			"doubleSided":true,
			"name":"DarkGrey",
			"pbrMetallicRoughness":{
				"baseColorFactor":[
					0.23954731225967407,
					0.23954731225967407,
					0.23954731225967407,
					1
				],
				"metallicFactor":0,
				"roughnessFactor":0.5
			}
		},
		{
			"alphaMode":"BLEND",
			"doubleSided":true,
			"name":"Glass",
			"pbrMetallicRoughness":{
				"baseColorFactor":[
					0.4396563470363617,
					0.6514052152633667,
					0.6104957461357117,
					0.3499999940395355
				],
				"metallicFactor":0,
				"roughnessFactor":0.5
			}
		}
	],
	"meshes":[
		{
			"name":"Plane.010",
			"primitives":[
				{
					"attributes":{
						"POSITION":0,
						"NORMAL":1
					},
					"indices":2,
					"material":0
				},
				{
					"attributes":{
						"POSITION":3,
						"NORMAL":4
					},
					"indices":5,
					"material":1
				},
				{
					"attributes":{
						"POSITION":6,
						"NORMAL":7
					},
					"indices":8,
					"material":2
				},
				{
					"attributes":{
						"POSITION":9,
						"NORMAL":10
					},
					"indices":11,
					"material":3
				},
				{
					"attributes":{
						"POSITION":12,
						"NORMAL":13
					},
					"indices":14,
					"material":4
				}
			]
		}
	],
	"accessors":[
		{
			"bufferView":0,
			"componentType":5126,
			"count":474,
			"max":[
				2.000001907348633,
				4.430893898010254,
				0.255655437707901
			],
			"min":[
				-2.000001907348633,
				0,
				-0.8027483224868774
			],
			"type":"VEC3"
		},
		{
			"bufferView":1,
			"componentType":5126,
			"count":474,
			"type":"VEC3"
		},
		{
			"bufferView":2,
			"componentType":5123,
			"count":1158,
			"type":"SCALAR"
		},
		{
			"bufferView":3,
			"componentType":5126,
			"count":624,
			"max":[
				2.000001907348633,
				3.382575750350952,
				-0.12105804681777954
			],
			"min":[
				-2,
				0.8757244348526001,
				-0.2704431116580963
			],
			"type":"VEC3"
		},
		{
			"bufferView":4,
			"componentType":5126,
			"count":624,
			"type":"VEC3"
		},
		{
			"bufferView":5,
			"componentType":5123,
			"count":972,
			"type":"SCALAR"
		},
		{
			"bufferView":6,
			"componentType":5126,
			"count":4,
			"max":[
				0.4496535658836365,
				3.557717800140381,
				0.06526713073253632
			],
			"min":[
				-0.5358981490135193,
				3.5190441608428955,
				0.006624848581850529
			],
			"type":"VEC3"
		},
		{
			"bufferView":7,
			"componentType":5126,
			"count":4,
			"type":"VEC3"
		},
		{
			"bufferView":8,
			"componentType":5123,
			"count":6,
			"type":"SCALAR"
		},
		{
			"bufferView":9,
			"componentType":5126,
			"count":88,
			"max":[
				2.000001907348633,
				3.610365867614746,
				0.1205843836069107
			],
			"min":[
				-2.000001907348633,
				0,
				-0.243461012840271
			],
			"type":"VEC3"
		},
		{
			"bufferView":10,
			"componentType":5126,
			"count":88,
			"type":"VEC3"
		},
		{
			"bufferView":11,
			"componentType":5123,
			"count":186,
			"type":"SCALAR"
		},
		{
			"bufferView":12,
			"componentType":5126,
			"count":26,
			"max":[
				1.2926112413406372,
				2.5956077575683594,
				-0.2332313060760498
			],
			"min":[
				-1.2926112413406372,
				1.654592514038086,
				-0.23323139548301697
			],
			"type":"VEC3"
		},
		{
			"bufferView":13,
			"componentType":5126,
			"count":26,
			"type":"VEC3"
		},
		{
			"bufferView":14,
			"componentType":5123,
			"count":60,
			"type":"SCALAR"
		}
	],
	"bufferViews":[
		{
			"buffer":0,
			"byteLength":5688,
			"byteOffset":0,
			"target":34962
		},
		{
			"buffer":0,
			"byteLength":5688,
			"byteOffset":5688,
			"target":34962
		},
		{
			"buffer":0,
			"byteLength":2316,
			"byteOffset":11376,
			"target":34963
		},
		{
			"buffer":0,
			"byteLength":7488,
			"byteOffset":13692,
			"target":34962
		},
		{
			"buffer":0,
			"byteLength":7488,
			"byteOffset":21180,
			"target":34962
		},
		{
			"buffer":0,
			"byteLength":1944,
			"byteOffset":28668,
			"target":34963
		},
		{
			"buffer":0,
			"byteLength":48,
			"byteOffset":30612,
			"target":34962
		},
		{
			"buffer":0,
			"byteLength":48,
			"byteOffset":30660,
			"target":34962
		},
		{
			"buffer":0,
			"byteLength":12,
			"byteOffset":30708,
			"target":34963
		},
		{
			"buffer":0,
			"byteLength":1056,
			"byteOffset":30720,
			"target":34962
		},
		{
			"buffer":0,
			"byteLength":1056,
			"byteOffset":31776,
			"target":34962
		},
		{
			"buffer":0,
			"byteLength":372,
			"byteOffset":32832,
			"target":34963
		},
		{
			"buffer":0,
			"byteLength":312,
			"byteOffset":33204,
			"target":34962
		},
		{
			"buffer":0,
			"byteLength":312,
			"byteOffset":33516,
			"target":34962
		},
		{
			"buffer":0,
			"byteLength":120,
			"byteOffset":33828,
			"target":34963
		}
	],
	"buffers":[
		{
			"byteLength":33948,
			"uri":"data:application/octet-stream;base64,"
		}
	]
}
