{
	"asset":{
		"generator":"Khronos glTF Blender I/O v3.6.28",
		"version":"2.0"
	},
	"extensionsUsed":[
		"KHR_materials_emissive_strength"
	],
	"scene":0,
	"scenes":[
		{
			"name":"Scene",
			"nodes":[
				0
			]
		}
	],
	"nodes":[
		{
			"mesh":0,
			"name":"Window_Wall_SideA"
		}
	],
	"materials":[
		{
			"doubleSided":true,
			"name":"Main",
			"pbrMetallicRoughness":{
				"baseColorFactor":[
					0.40196332335472107,
					0.40196332335472107,
					0.40196332335472107,
					1
				],
				"metallicFactor":0,
				"roughnessFactor":0.5
			}
		},
		{
			"doubleSided":true,
			"name":"Accent",
			"pbrMetallicRoughness":{
				"baseColorFactor":[
					0.559592604637146,
					0.29767245054244995,
					0.06678982824087143,
					1
				],
				"metallicFactor":0,
				"roughnessFactor":0.5
			}
		},
		{
			"alphaMode":"BLEND",
			"doubleSided":true,
			"name":"Glass",
			"pbrMetallicRoughness":{
				"baseColorFactor":[
					0.4396563470363617,
					0.6514052152633667,
					0.6104957461357117,
					0.3499999940395355
				],
				"metallicFactor":0,
				"roughnessFactor":0.5
			}
		},
		{
			"doubleSided":true,
			"name":"DarkGrey",
			"pbrMetallicRoughness":{
				"baseColorFactor":[
					0.23954731225967407,
					0.23954731225967407,
					0.23954731225967407,
					1
				],
				"metallicFactor":0,
				"roughnessFactor":0.5
			}
		},
		{
			"doubleSided":true,
			"emissiveFactor":[
				1,
				0.8120468854904175,
				0.3343311548233032
			],
			"extensions":{
				"KHR_materials_emissive_strength":{
					"emissiveStrength":3.0999999046325684
				}
			},
			"name":"Light",
			"pbrMetallicRoughness":{
				"baseColorFactor":[
					0,
					0,
					0,
					1
				]
			}
		}
	],
	"meshes":[
		{
			"name":"Plane.003",
			"primitives":[
				{
					"attributes":{
						"POSITION":0,
						"NORMAL":1
					},
					"indices":2,
					"material":0
				},
				{
					"attributes":{
						"POSITION":3,
						"NORMAL":4
					},
					"indices":5,
					"material":1
				},
				{
					"attributes":{
						"POSITION":6,
						"NORMAL":7
					},
					"indices":8,
					"material":2
				},
				{
					"attributes":{
						"POSITION":9,
						"NORMAL":10
					},
					"indices":11,
					"material":3
				},
				{
					"attributes":{
						"POSITION":12,
						"NORMAL":13
					},
					"indices":14,
					"material":4
				}
			]
		}
	],
	"accessors":[
		{
			"bufferView":0,
			"componentType":5126,
			"count":258,
			"max":[
				2.000001907348633,
				4.430893898010254,
				0.25565552711486816
			],
			"min":[
				-2,
				0,
				-0.8084308505058289
			],
			"type":"VEC3"
		},
		{
			"bufferView":1,
			"componentType":5126,
			"count":258,
			"type":"VEC3"
		},
		{
			"bufferView":2,
			"componentType":5123,
			"count":522,
			"type":"SCALAR"
		},
		{
			"bufferView":3,
			"componentType":5126,
			"count":216,
			"max":[
				2.000001907348633,
				3.382575750350952,
				-0.12105804681777954
			],
			"min":[
				-2,
				0.8757244348526001,
				-0.27988573908805847
			],
			"type":"VEC3"
		},
		{
			"bufferView":4,
			"componentType":5126,
			"count":216,
			"type":"VEC3"
		},
		{
			"bufferView":5,
			"componentType":5123,
			"count":324,
			"type":"SCALAR"
		},
		{
			"bufferView":6,
			"componentType":5126,
			"count":8,
			"max":[
				1.4650248289108276,
				2.8304667472839355,
				-0.18369054794311523
			],
			"min":[
				-1.4521559476852417,
				1.666551113128662,
				-0.1836906373500824
			],
			"type":"VEC3"
		},
		{
			"bufferView":7,
			"componentType":5126,
			"count":8,
			"type":"VEC3"
		},
		{
			"bufferView":8,
			"componentType":5123,
			"count":18,
			"type":"SCALAR"
		},
		{
			"bufferView":9,
			"componentType":5126,
			"count":68,
			"max":[
				2.000001907348633,
				3.610365867614746,
				0.1205843836069107
			],
			"min":[
				-1.9999995231628418,
				0,
				-0.243461012840271
			],
			"type":"VEC3"
		},
		{
			"bufferView":10,
			"componentType":5126,
			"count":68,
			"type":"VEC3"
		},
		{
			"bufferView":11,
			"componentType":5123,
			"count":126,
			"type":"SCALAR"
		},
		{
			"bufferView":12,
			"componentType":5126,
			"count":4,
			"max":[
				0.4496535658836365,
				3.557717800140381,
				0.06526713073253632
			],
			"min":[
				-0.5358981490135193,
				3.5190441608428955,
				0.006624848581850529
			],
			"type":"VEC3"
		},
		{
			"bufferView":13,
			"componentType":5126,
			"count":4,
			"type":"VEC3"
		},
		{
			"bufferView":14,
			"componentType":5123,
			"count":6,
			"type":"SCALAR"
		}
	],
	"bufferViews":[
		{
			"buffer":0,
			"byteLength":3096,
			"byteOffset":0,
			"target":34962
		},
		{
			"buffer":0,
			"byteLength":3096,
			"byteOffset":3096,
			"target":34962
		},
		{
			"buffer":0,
			"byteLength":1044,
			"byteOffset":6192,
			"target":34963
		},
		{
			"buffer":0,
			"byteLength":2592,
			"byteOffset":7236,
			"target":34962
		},
		{
			"buffer":0,
			"byteLength":2592,
			"byteOffset":9828,
			"target":34962
		},
		{
			"buffer":0,
			"byteLength":648,
			"byteOffset":12420,
			"target":34963
		},
		{
			"buffer":0,
			"byteLength":96,
			"byteOffset":13068,
			"target":34962
		},
		{
			"buffer":0,
			"byteLength":96,
			"byteOffset":13164,
			"target":34962
		},
		{
			"buffer":0,
			"byteLength":36,
			"byteOffset":13260,
			"target":34963
		},
		{
			"buffer":0,
			"byteLength":816,
			"byteOffset":13296,
			"target":34962
		},
		{
			"buffer":0,
			"byteLength":816,
			"byteOffset":14112,
			"target":34962
		},
		{
			"buffer":0,
			"byteLength":252,
			"byteOffset":14928,
			"target":34963
		},
		{
			"buffer":0,
			"byteLength":48,
			"byteOffset":15180,
			"target":34962
		},
		{
			"buffer":0,
			"byteLength":48,
			"byteOffset":15228,
			"target":34962
		},
		{
			"buffer":0,
			"byteLength":12,
			"byteOffset":15276,
			"target":34963
		}
	],
	"buffers":[
		{
			"byteLength":15288,
			"uri":"data:application/octet-stream;base64,"
		}
	]
}
