{
	"asset":{
		"generator":"Khronos glTF Blender I/O v3.6.28",
		"version":"2.0"
	},
	"extensionsUsed":[
		"KHR_materials_emissive_strength"
	],
	"scene":0,
	"scenes":[
		{
			"name":"Scene",
			"nodes":[
				0
			]
		}
	],
	"nodes":[
		{
			"mesh":0,
			"name":"DoorSingle_Wall_SideB"
		}
	],
	"materials":[
		{
			"doubleSided":true,
			"name":"Main",
			"pbrMetallicRoughness":{
				"baseColorFactor":[
					0.40196332335472107,
					0.40196332335472107,
					0.40196332335472107,
					1
				],
				"metallicFactor":0,
				"roughnessFactor":0.5
			}
		},
		{
			"doubleSided":true,
			"name":"Accent",
			"pbrMetallicRoughness":{
				"baseColorFactor":[
					0.559592604637146,
					0.29767245054244995,
					0.06678982824087143,
					1
				],
				"metallicFactor":0,
				"roughnessFactor":0.5
			}
		},
		{
			"doubleSided":true,
			"emissiveFactor":[
				1,
				0.8120468854904175,
				0.3343311548233032
			],
			"extensions":{
				"KHR_materials_emissive_strength":{
					"emissiveStrength":3.0999999046325684
				}
			},
			"name":"Light",
			"pbrMetallicRoughness":{
				"baseColorFactor":[
					0,
					0,
					0,
					1
				]
			}
		},
		{
			"doubleSided":true,
			"name":"DarkGrey",
			"pbrMetallicRoughness":{
				"baseColorFactor":[
					0.23954731225967407,
					0.23954731225967407,
					0.23954731225967407,
					1
				],
				"metallicFactor":0,
				"roughnessFactor":0.5
			}
		}
	],
	"meshes":[
		{
			"name":"Plane.023",
			"primitives":[
				{
					"attributes":{
						"POSITION":0,
						"NORMAL":1
					},
					"indices":2,
					"material":0
				},
				{
					"attributes":{
						"POSITION":3,
						"NORMAL":4
					},
					"indices":5,
					"material":1
				},
				{
					"attributes":{
						"POSITION":6,
						"NORMAL":7
					},
					"indices":8,
					"material":2
				},
				{
					"attributes":{
						"POSITION":9,
						"NORMAL":10
					},
					"indices":11,
					"material":3
				}
			]
		}
	],
	"accessors":[
		{
			"bufferView":0,
			"componentType":5126,
			"count":200,
			"max":[
				2,
				4.430893898010254,
				0.25565552711486816
			],
			"min":[
				-2,
				5.221366882324219e-05,
				-0.2750568091869354
			],
			"type":"VEC3"
		},
		{
			"bufferView":1,
			"componentType":5126,
			"count":200,
			"type":"VEC3"
		},
		{
			"bufferView":2,
			"componentType":5123,
			"count":420,
			"type":"SCALAR"
		},
		{
			"bufferView":3,
			"componentType":5126,
			"count":42,
			"max":[
				2,
				3.382575750350952,
				-0.12105804681777954
			],
			"min":[
				-2,
				0.8757244348526001,
				-0.23725029826164246
			],
			"type":"VEC3"
		},
		{
			"bufferView":4,
			"componentType":5126,
			"count":42,
			"type":"VEC3"
		},
		{
			"bufferView":5,
			"componentType":5123,
			"count":72,
			"type":"SCALAR"
		},
		{
			"bufferView":6,
			"componentType":5126,
			"count":4,
			"max":[
				0.49215734004974365,
				3.557717800140381,
				0.06526713073253632
			],
			"min":[
				-0.4933943748474121,
				3.5190441608428955,
				0.006624848581850529
			],
			"type":"VEC3"
		},
		{
			"bufferView":7,
			"componentType":5126,
			"count":4,
			"type":"VEC3"
		},
		{
			"bufferView":8,
			"componentType":5123,
			"count":6,
			"type":"SCALAR"
		},
		{
			"bufferView":9,
			"componentType":5126,
			"count":64,
			"max":[
				1.9999995231628418,
				3.610365867614746,
				0.1205843836069107
			],
			"min":[
				-1.9999995231628418,
				0,
				-0.2750568091869354
			],
			"type":"VEC3"
		},
		{
			"bufferView":10,
			"componentType":5126,
			"count":64,
			"type":"VEC3"
		},
		{
			"bufferView":11,
			"componentType":5123,
			"count":108,
			"type":"SCALAR"
		}
	],
	"bufferViews":[
		{
			"buffer":0,
			"byteLength":2400,
			"byteOffset":0,
			"target":34962
		},
		{
			"buffer":0,
			"byteLength":2400,
			"byteOffset":2400,
			"target":34962
		},
		{
			"buffer":0,
			"byteLength":840,
			"byteOffset":4800,
			"target":34963
		},
		{
			"buffer":0,
			"byteLength":504,
			"byteOffset":5640,
			"target":34962
		},
		{
			"buffer":0,
			"byteLength":504,
			"byteOffset":6144,
			"target":34962
		},
		{
			"buffer":0,
			"byteLength":144,
			"byteOffset":6648,
			"target":34963
		},
		{
			"buffer":0,
			"byteLength":48,
			"byteOffset":6792,
			"target":34962
		},
		{
			"buffer":0,
			"byteLength":48,
			"byteOffset":6840,
			"target":34962
		},
		{
			"buffer":0,
			"byteLength":12,
			"byteOffset":6888,
			"target":34963
		},
		{
			"buffer":0,
			"byteLength":768,
			"byteOffset":6900,
			"target":34962
		},
		{
			"buffer":0,
			"byteLength":768,
			"byteOffset":7668,
			"target":34962
		},
		{
			"buffer":0,
			"byteLength":216,
			"byteOffset":8436,
			"target":34963
		}
	],
	"buffers":[
		{
			"byteLength":8652,
			"uri":"data:application/octet-stream;base64,"
		}
	]
}
