{
	"asset":{
		"generator":"Khronos glTF Blender I/O v3.6.28",
		"version":"2.0"
	},
	"extensionsUsed":[
		"KHR_materials_emissive_strength"
	],
	"scene":0,
	"scenes":[
		{
			"name":"Scene",
			"nodes":[
				0
			]
		}
	],
	"nodes":[
		{
			"mesh":0,
			"name":"Wall_5"
		}
	],
	"materials":[
		{
			"doubleSided":true,
			"name":"Main",
			"pbrMetallicRoughness":{
				"baseColorFactor":[
					0.40196332335472107,
					0.40196332335472107,
					0.40196332335472107,
					1
				],
				"metallicFactor":0,
				"roughnessFactor":0.5
			}
		},
		{
			"doubleSided":true,
			"name":"Accent",
			"pbrMetallicRoughness":{
				"baseColorFactor":[
					0.559592604637146,
					0.29767245054244995,
					0.06678982824087143,
					1
				],
				"metallicFactor":0,
				"roughnessFactor":0.5
			}
		},
		{
			"doubleSided":true,
			"emissiveFactor":[
				1,
				0.8120468854904175,
				0.3343311548233032
			],
			"extensions":{
				"KHR_materials_emissive_strength":{
					"emissiveStrength":3.0999999046325684
				}
			},
			"name":"Light",
			"pbrMetallicRoughness":{
				"baseColorFactor":[
					0,
					0,
					0,
					1
				]
			}
		},
		{
			"doubleSided":true,
			"name":"DarkGrey",
			"pbrMetallicRoughness":{
				"baseColorFactor":[
					0.23954731225967407,
					0.23954731225967407,
					0.23954731225967407,
					1
				],
				"metallicFactor":0,
				"roughnessFactor":0.5
			}
		},
		{
			"doubleSided":true,
			"name":"DarkAccent",
			"pbrMetallicRoughness":{
				"baseColorFactor":[
					0.226578950881958,
					0.12337818741798401,
					0.030147360637784004,
					1
				],
				"metallicFactor":0,
				"roughnessFactor":0.5
			}
		},
		{
			"doubleSided":true,
			"name":"Black",
			"pbrMetallicRoughness":{
				"baseColorFactor":[
					0.04202548414468765,
					0.04202548414468765,
					0.04202548414468765,
					1
				],
				"metallicFactor":0,
				"roughnessFactor":0.5
			}
		}
	],
	"meshes":[
		{
			"name":"Plane.113",
			"primitives":[
				{
					"attributes":{
						"POSITION":0,
						"NORMAL":1
					},
					"indices":2,
					"material":0
				},
				{
					"attributes":{
						"POSITION":3,
						"NORMAL":4
					},
					"indices":5,
					"material":1
				},
				{
					"attributes":{
						"POSITION":6,
						"NORMAL":7
					},
					"indices":8,
					"material":2
				},
				{
					"attributes":{
						"POSITION":9,
						"NORMAL":10
					},
					"indices":11,
					"material":3
				},
				{
					"attributes":{
						"POSITION":12,
						"NORMAL":13
					},
					"indices":14,
					"material":4
				},
				{
					"attributes":{
						"POSITION":15,
						"NORMAL":16
					},
					"indices":17,
					"material":5
				}
			]
		}
	],
	"accessors":[
		{
			"bufferView":0,
			"componentType":5126,
			"count":426,
			"max":[
				2.000001907348633,
				4.430893898010254,
				0.25565552711486816
			],
			"min":[
				-2,
				0,
				-0.2490920126438141
			],
			"type":"VEC3"
		},
		{
			"bufferView":1,
			"componentType":5126,
			"count":426,
			"type":"VEC3"
		},
		{
			"bufferView":2,
			"componentType":5123,
			"count":1038,
			"type":"SCALAR"
		},
		{
			"bufferView":3,
			"componentType":5126,
			"count":280,
			"max":[
				2.000001907348633,
				3.382575750350952,
				-0.12105804681777954
			],
			"min":[
				-2,
				0.8757244348526001,
				-0.24268895387649536
			],
			"type":"VEC3"
		},
		{
			"bufferView":4,
			"componentType":5126,
			"count":280,
			"type":"VEC3"
		},
		{
			"bufferView":5,
			"componentType":5123,
			"count":420,
			"type":"SCALAR"
		},
		{
			"bufferView":6,
			"componentType":5126,
			"count":4,
			"max":[
				0.4496535658836365,
				3.557717800140381,
				0.06526713073253632
			],
			"min":[
				-0.5358981490135193,
				3.5190441608428955,
				0.006624848581850529
			],
			"type":"VEC3"
		},
		{
			"bufferView":7,
			"componentType":5126,
			"count":4,
			"type":"VEC3"
		},
		{
			"bufferView":8,
			"componentType":5123,
			"count":6,
			"type":"SCALAR"
		},
		{
			"bufferView":9,
			"componentType":5126,
			"count":1216,
			"max":[
				2.000001907348633,
				3.610365867614746,
				0.1205843836069107
			],
			"min":[
				-1.9999995231628418,
				0,
				-0.243461012840271
			],
			"type":"VEC3"
		},
		{
			"bufferView":10,
			"componentType":5126,
			"count":1216,
			"type":"VEC3"
		},
		{
			"bufferView":11,
			"componentType":5123,
			"count":2286,
			"type":"SCALAR"
		},
		{
			"bufferView":12,
			"componentType":5126,
			"count":176,
			"max":[
				1.4195044040679932,
				2.8169758319854736,
				-0.1840735226869583
			],
			"min":[
				-1.4284507036209106,
				1.593209981918335,
				-0.2722207307815552
			],
			"type":"VEC3"
		},
		{
			"bufferView":13,
			"componentType":5126,
			"count":176,
			"type":"VEC3"
		},
		{
			"bufferView":14,
			"componentType":5123,
			"count":432,
			"type":"SCALAR"
		},
		{
			"bufferView":15,
			"componentType":5126,
			"count":24,
			"max":[
				1.3732779026031494,
				2.784499406814575,
				-0.2357741892337799
			],
			"min":[
				-1.382224202156067,
				1.6256866455078125,
				-0.23577463626861572
			],
			"type":"VEC3"
		},
		{
			"bufferView":16,
			"componentType":5126,
			"count":24,
			"type":"VEC3"
		},
		{
			"bufferView":17,
			"componentType":5123,
			"count":60,
			"type":"SCALAR"
		}
	],
	"bufferViews":[
		{
			"buffer":0,
			"byteLength":5112,
			"byteOffset":0,
			"target":34962
		},
		{
			"buffer":0,
			"byteLength":5112,
			"byteOffset":5112,
			"target":34962
		},
		{
			"buffer":0,
			"byteLength":2076,
			"byteOffset":10224,
			"target":34963
		},
		{
			"buffer":0,
			"byteLength":3360,
			"byteOffset":12300,
			"target":34962
		},
		{
			"buffer":0,
			"byteLength":3360,
			"byteOffset":15660,
			"target":34962
		},
		{
			"buffer":0,
			"byteLength":840,
			"byteOffset":19020,
			"target":34963
		},
		{
			"buffer":0,
			"byteLength":48,
			"byteOffset":19860,
			"target":34962
		},
		{
			"buffer":0,
			"byteLength":48,
			"byteOffset":19908,
			"target":34962
		},
		{
			"buffer":0,
			"byteLength":12,
			"byteOffset":19956,
			"target":34963
		},
		{
			"buffer":0,
			"byteLength":14592,
			"byteOffset":19968,
			"target":34962
		},
		{
			"buffer":0,
			"byteLength":14592,
			"byteOffset":34560,
			"target":34962
		},
		{
			"buffer":0,
			"byteLength":4572,
			"byteOffset":49152,
			"target":34963
		},
		{
			"buffer":0,
			"byteLength":2112,
			"byteOffset":53724,
			"target":34962
		},
		{
			"buffer":0,
			"byteLength":2112,
			"byteOffset":55836,
			"target":34962
		},
		{
			"buffer":0,
			"byteLength":864,
			"byteOffset":57948,
			"target":34963
		},
		{
			"buffer":0,
			"byteLength":288,
			"byteOffset":58812,
			"target":34962
		},
		{
			"buffer":0,
			"byteLength":288,
			"byteOffset":59100,
			"target":34962
		},
		{
			"buffer":0,
			"byteLength":120,
			"byteOffset":59388,
			"target":34963
		}
	],
	"buffers":[
		{
			"byteLength":59508,
			"uri":"data:application/octet-stream;base64,"
		}
	]
}
