{
	"asset":{
		"generator":"Khronos glTF Blender I/O v3.6.28",
		"version":"2.0"
	},
	"extensionsUsed":[
		"KHR_materials_emissive_strength"
	],
	"scene":0,
	"scenes":[
		{
			"name":"Scene",
			"nodes":[
				0
			]
		}
	],
	"nodes":[
		{
			"mesh":0,
			"name":"Wall_2"
		}
	],
	"materials":[
		{
			"doubleSided":true,
			"name":"Main",
			"pbrMetallicRoughness":{
				"baseColorFactor":[
					0.40196332335472107,
					0.40196332335472107,
					0.40196332335472107,
					1
				],
				"metallicFactor":0,
				"roughnessFactor":0.5
			}
		},
		{
			"doubleSided":true,
			"name":"Accent",
			"pbrMetallicRoughness":{
				"baseColorFactor":[
					0.559592604637146,
					0.29767245054244995,
					0.06678982824087143,
					1
				],
				"metallicFactor":0,
				"roughnessFactor":0.5
			}
		},
		{
			"doubleSided":true,
			"emissiveFactor":[
				1,
				0.8120468854904175,
				0.3343311548233032
			],
			"extensions":{
				"KHR_materials_emissive_strength":{
					"emissiveStrength":3.0999999046325684
				}
			},
			"name":"Light",
			"pbrMetallicRoughness":{
				"baseColorFactor":[
					0,
					0,
					0,
					1
				]
			}
		},
		{
			"doubleSided":true,
			"name":"DarkGrey",
			"pbrMetallicRoughness":{
				"baseColorFactor":[
					0.23954731225967407,
					0.23954731225967407,
					0.23954731225967407,
					1
				],
				"metallicFactor":0,
				"roughnessFactor":0.5
			}
		},
		{
			"doubleSided":true,
			"name":"DarkAccent",
			"pbrMetallicRoughness":{
				"baseColorFactor":[
					0.226578950881958,
					0.12337818741798401,
					0.030147360637784004,
					1
				],
				"metallicFactor":0,
				"roughnessFactor":0.5
			}
		},
		{
			"doubleSided":true,
			"name":"Black",
			"pbrMetallicRoughness":{
				"baseColorFactor":[
					0.04202548414468765,
					0.04202548414468765,
					0.04202548414468765,
					1
				],
				"metallicFactor":0,
				"roughnessFactor":0.5
			}
		}
	],
	"meshes":[
		{
			"name":"Plane.050",
			"primitives":[
				{
					"attributes":{
						"POSITION":0,
						"NORMAL":1
					},
					"indices":2,
					"material":0
				},
				{
					"attributes":{
						"POSITION":3,
						"NORMAL":4
					},
					"indices":5,
					"material":1
				},
				{
					"attributes":{
						"POSITION":6,
						"NORMAL":7
					},
					"indices":8,
					"material":2
				},
				{
					"attributes":{
						"POSITION":9,
						"NORMAL":10
					},
					"indices":11,
					"material":3
				},
				{
					"attributes":{
						"POSITION":12,
						"NORMAL":13
					},
					"indices":14,
					"material":4
				},
				{
					"attributes":{
						"POSITION":15,
						"NORMAL":16
					},
					"indices":17,
					"material":5
				}
			]
		}
	],
	"accessors":[
		{
			"bufferView":0,
			"componentType":5126,
			"count":374,
			"max":[
				2.000001907348633,
				4.430893898010254,
				0.25565552711486816
			],
			"min":[
				-2,
				0,
				-0.2442125678062439
			],
			"type":"VEC3"
		},
		{
			"bufferView":1,
			"componentType":5126,
			"count":374,
			"type":"VEC3"
		},
		{
			"bufferView":2,
			"componentType":5123,
			"count":840,
			"type":"SCALAR"
		},
		{
			"bufferView":3,
			"componentType":5126,
			"count":752,
			"max":[
				2.000001907348633,
				3.382575750350952,
				-0.12105804681777954
			],
			"min":[
				-2,
				0.8757244348526001,
				-0.24697043001651764
			],
			"type":"VEC3"
		},
		{
			"bufferView":4,
			"componentType":5126,
			"count":752,
			"type":"VEC3"
		},
		{
			"bufferView":5,
			"componentType":5123,
			"count":1272,
			"type":"SCALAR"
		},
		{
			"bufferView":6,
			"componentType":5126,
			"count":4,
			"max":[
				0.4496535658836365,
				3.557717800140381,
				0.06526713073253632
			],
			"min":[
				-0.5358981490135193,
				3.5190441608428955,
				0.006624848581850529
			],
			"type":"VEC3"
		},
		{
			"bufferView":7,
			"componentType":5126,
			"count":4,
			"type":"VEC3"
		},
		{
			"bufferView":8,
			"componentType":5123,
			"count":6,
			"type":"SCALAR"
		},
		{
			"bufferView":9,
			"componentType":5126,
			"count":1782,
			"max":[
				2.000001907348633,
				3.610365867614746,
				0.1205843836069107
			],
			"min":[
				-1.9999995231628418,
				0,
				-0.24697043001651764
			],
			"type":"VEC3"
		},
		{
			"bufferView":10,
			"componentType":5126,
			"count":1782,
			"type":"VEC3"
		},
		{
			"bufferView":11,
			"componentType":5123,
			"count":3342,
			"type":"SCALAR"
		},
		{
			"bufferView":12,
			"componentType":5126,
			"count":312,
			"max":[
				1.3988254070281982,
				2.918482780456543,
				-0.17571060359477997
			],
			"min":[
				-1.3987679481506348,
				1.333890676498413,
				-0.2777099311351776
			],
			"type":"VEC3"
		},
		{
			"bufferView":13,
			"componentType":5126,
			"count":312,
			"type":"VEC3"
		},
		{
			"bufferView":14,
			"componentType":5123,
			"count":768,
			"type":"SCALAR"
		},
		{
			"bufferView":15,
			"componentType":5126,
			"count":36,
			"max":[
				1.365020751953125,
				2.870365619659424,
				-0.23977287113666534
			],
			"min":[
				-1.3649632930755615,
				1.3820078372955322,
				-0.2397732436656952
			],
			"type":"VEC3"
		},
		{
			"bufferView":16,
			"componentType":5126,
			"count":36,
			"type":"VEC3"
		},
		{
			"bufferView":17,
			"componentType":5123,
			"count":90,
			"type":"SCALAR"
		}
	],
	"bufferViews":[
		{
			"buffer":0,
			"byteLength":4488,
			"byteOffset":0,
			"target":34962
		},
		{
			"buffer":0,
			"byteLength":4488,
			"byteOffset":4488,
			"target":34962
		},
		{
			"buffer":0,
			"byteLength":1680,
			"byteOffset":8976,
			"target":34963
		},
		{
			"buffer":0,
			"byteLength":9024,
			"byteOffset":10656,
			"target":34962
		},
		{
			"buffer":0,
			"byteLength":9024,
			"byteOffset":19680,
			"target":34962
		},
		{
			"buffer":0,
			"byteLength":2544,
			"byteOffset":28704,
			"target":34963
		},
		{
			"buffer":0,
			"byteLength":48,
			"byteOffset":31248,
			"target":34962
		},
		{
			"buffer":0,
			"byteLength":48,
			"byteOffset":31296,
			"target":34962
		},
		{
			"buffer":0,
			"byteLength":12,
			"byteOffset":31344,
			"target":34963
		},
		{
			"buffer":0,
			"byteLength":21384,
			"byteOffset":31356,
			"target":34962
		},
		{
			"buffer":0,
			"byteLength":21384,
			"byteOffset":52740,
			"target":34962
		},
		{
			"buffer":0,
			"byteLength":6684,
			"byteOffset":74124,
			"target":34963
		},
		{
			"buffer":0,
			"byteLength":3744,
			"byteOffset":80808,
			"target":34962
		},
		{
			"buffer":0,
			"byteLength":3744,
			"byteOffset":84552,
			"target":34962
		},
		{
			"buffer":0,
			"byteLength":1536,
			"byteOffset":88296,
			"target":34963
		},
		{
			"buffer":0,
			"byteLength":432,
			"byteOffset":89832,
			"target":34962
		},
		{
			"buffer":0,
			"byteLength":432,
			"byteOffset":90264,
			"target":34962
		},
		{
			"buffer":0,
			"byteLength":180,
			"byteOffset":90696,
			"target":34963
		}
	],
	"buffers":[
		{
			"byteLength":90876,
			"uri":"data:application/octet-stream;base64,"
		}
	]
}
