{
	"asset":{
		"generator":"Khronos glTF Blender I/O v3.6.28",
		"version":"2.0"
	},
	"extensionsUsed":[
		"KHR_materials_emissive_strength"
	],
	"scene":0,
	"scenes":[
		{
			"name":"Scene",
			"nodes":[
				0
			]
		}
	],
	"nodes":[
		{
			"mesh":0,
			"name":"Wall_Empty"
		}
	],
	"materials":[
		{
			"doubleSided":true,
			"name":"Main",
			"pbrMetallicRoughness":{
				"baseColorFactor":[
					0.40196332335472107,
					0.40196332335472107,
					0.40196332335472107,
					1
				],
				"metallicFactor":0,
				"roughnessFactor":0.5
			}
		},
		{
			"doubleSided":true,
			"name":"Accent",
			"pbrMetallicRoughness":{
				"baseColorFactor":[
					0.559592604637146,
					0.29767245054244995,
					0.06678982824087143,
					1
				],
				"metallicFactor":0,
				"roughnessFactor":0.5
			}
		},
		{
			"doubleSided":true,
			"emissiveFactor":[
				1,
				0.8120468854904175,
				0.3343311548233032
			],
			"extensions":{
				"KHR_materials_emissive_strength":{
					"emissiveStrength":3.0999999046325684
				}
			},
			"name":"Light",
			"pbrMetallicRoughness":{
				"baseColorFactor":[
					0,
					0,
					0,
					1
				]
			}
		},
		{
			"doubleSided":true,
			"name":"DarkGrey",
			"pbrMetallicRoughness":{
				"baseColorFactor":[
					0.23954731225967407,
					0.23954731225967407,
					0.23954731225967407,
					1
				],
				"metallicFactor":0,
				"roughnessFactor":0.5
			}
		}
	],
	"meshes":[
		{
			"name":"Plane.111",
			"primitives":[
				{
					"attributes":{
						"POSITION":0,
						"NORMAL":1
					},
					"indices":2,
					"material":0
				},
				{
					"attributes":{
						"POSITION":3,
						"NORMAL":4
					},
					"indices":5,
					"material":1
				},
				{
					"attributes":{
						"POSITION":6,
						"NORMAL":7
					},
					"indices":8,
					"material":2
				},
				{
					"attributes":{
						"POSITION":9,
						"NORMAL":10
					},
					"indices":11,
					"material":3
				}
			]
		}
	],
	"accessors":[
		{
			"bufferView":0,
			"componentType":5126,
			"count":306,
			"max":[
				2.000001907348633,
				4.430893898010254,
				0.25565552711486816
			],
			"min":[
				-2,
				0,
				-0.243461012840271
			],
			"type":"VEC3"
		},
		{
			"bufferView":1,
			"componentType":5126,
			"count":306,
			"type":"VEC3"
		},
		{
			"bufferView":2,
			"componentType":5123,
			"count":726,
			"type":"SCALAR"
		},
		{
			"bufferView":3,
			"componentType":5126,
			"count":24,
			"max":[
				2.000001907348633,
				3.382575750350952,
				-0.12105804681777954
			],
			"min":[
				-2,
				0.8757244348526001,
				-0.23725038766860962
			],
			"type":"VEC3"
		},
		{
			"bufferView":4,
			"componentType":5126,
			"count":24,
			"type":"VEC3"
		},
		{
			"bufferView":5,
			"componentType":5123,
			"count":36,
			"type":"SCALAR"
		},
		{
			"bufferView":6,
			"componentType":5126,
			"count":4,
			"max":[
				0.4496535658836365,
				3.557717800140381,
				0.06526713073253632
			],
			"min":[
				-0.5358981490135193,
				3.5190441608428955,
				0.006624848581850529
			],
			"type":"VEC3"
		},
		{
			"bufferView":7,
			"componentType":5126,
			"count":4,
			"type":"VEC3"
		},
		{
			"bufferView":8,
			"componentType":5123,
			"count":6,
			"type":"SCALAR"
		},
		{
			"bufferView":9,
			"componentType":5126,
			"count":84,
			"max":[
				2.000001907348633,
				3.610365867614746,
				0.1205843836069107
			],
			"min":[
				-1.9999995231628418,
				0,
				-0.243461012840271
			],
			"type":"VEC3"
		},
		{
			"bufferView":10,
			"componentType":5126,
			"count":84,
			"type":"VEC3"
		},
		{
			"bufferView":11,
			"componentType":5123,
			"count":174,
			"type":"SCALAR"
		}
	],
	"bufferViews":[
		{
			"buffer":0,
			"byteLength":3672,
			"byteOffset":0,
			"target":34962
		},
		{
			"buffer":0,
			"byteLength":3672,
			"byteOffset":3672,
			"target":34962
		},
		{
			"buffer":0,
			"byteLength":1452,
			"byteOffset":7344,
			"target":34963
		},
		{
			"buffer":0,
			"byteLength":288,
			"byteOffset":8796,
			"target":34962
		},
		{
			"buffer":0,
			"byteLength":288,
			"byteOffset":9084,
			"target":34962
		},
		{
			"buffer":0,
			"byteLength":72,
			"byteOffset":9372,
			"target":34963
		},
		{
			"buffer":0,
			"byteLength":48,
			"byteOffset":9444,
			"target":34962
		},
		{
			"buffer":0,
			"byteLength":48,
			"byteOffset":9492,
			"target":34962
		},
		{
			"buffer":0,
			"byteLength":12,
			"byteOffset":9540,
			"target":34963
		},
		{
			"buffer":0,
			"byteLength":1008,
			"byteOffset":9552,
			"target":34962
		},
		{
			"buffer":0,
			"byteLength":1008,
			"byteOffset":10560,
			"target":34962
		},
		{
			"buffer":0,
			"byteLength":348,
			"byteOffset":11568,
			"target":34963
		}
	],
	"buffers":[
		{
			"byteLength":11916,
			"uri":"data:application/octet-stream;base64,"
		}
	]
}
