<svg class="mini-map-container" viewBox="0 0 100 100" xmlns="http://www.w3.org/2000/svg">
    <circle class="mini-map-border" stroke-width="2" cx="50" cy="50" r="49" />
    <circle class="mini-map-view" cx="50" cy="50" r="49" />
    <!-- Vertical Lines -->
    <path class="mini-map-bar" d="M 50 0 Q -30 50 50 100" fill="transparent"/>
    <path class="mini-map-bar" d="M 50 0 Q 0 50 50 100" fill="transparent"/>
    <path class="mini-map-bar" d="M 50 0 50 100" fill="transparent"/>
    <path class="mini-map-bar" d="M 50 0 Q 100 50 50 100" fill="transparent"/>
    <path class="mini-map-bar" d="M 50 0 Q 130 50 50 100" fill="transparent"/>
    <!-- Horizontal Lines -->
    <path class="mini-map-bar" d="M 0 50 Q 50 -30 100 50" fill="transparent"/>
    <path class="mini-map-bar" d="M 0 50 Q 50 0 100 50" fill="transparent"/>
    <path class="mini-map-bar" d="M 0 50 100 50" fill="transparent"/>
    <path class="mini-map-bar" d="M 0 50 Q 50 100 100 50" fill="transparent"/>
    <path class="mini-map-bar" d="M 0 50 Q 50 130 100 50" fill="transparent"/>
</svg>