<?xml version="1.0" encoding="iso-8859-1"?>
<!-- Generator: Adobe Illustrator 19.0.0, SVG Export Plug-In . SVG Version: 6.00 Build 0)  -->
<svg fill="currentColor" version="1.1" id="Capa_1" xmlns="http://www.w3.org/2000/svg" xmlns:xlink="http://www.w3.org/1999/xlink" x="0px" y="0px"
	 viewBox="0 0 512 512" style="enable-background:new 0 0 512 512;" xml:space="preserve">
<g>
	<g>
		<path d="M256,0c-52.755,0-96.127,40.25-103.484,91h61.238c6.198-17.437,22.681-30,42.246-30s36.048,12.563,42.246,30h61.238
			C352.127,40.25,308.755,0,256,0z"/>
	</g>
</g>
<g>
	<g>
		<path d="M1.518,452C8.487,486.191,38.784,512,75,512h362c36.216,0,66.513-25.809,73.482-60H1.518z"/>
	</g>
</g>
<g>
	<g>
		<path d="M407,301h-30c-8.276,0-15,6.724-15,15s6.724,15,15,15h30c8.276,0,15-6.724,15-15S415.276,301,407,301z"/>
	</g>
</g>
<g>
	<g>
		<path d="M437,121H75c-41.353,0-75,33.647-75,75v30c0,37.09,26.927,68.89,62.833,74.78C69.104,283.471,85.552,271,105,271h31
			c19.567,0,36.085,12.529,42.268,30.004c48.986-0.018,107.258-0.042,156.482-0.06C340.948,283.498,357.453,271,377,271h30
			c19.53,0,36.024,12.578,42.237,30c0.135,0,0.471,0,0.507,0C484.329,295.946,512,263.632,512,226v-30
			C512,154.647,478.353,121,437,121z"/>
	</g>
</g>
<g>
	<g>
		<path d="M451.854,330.854l-2.573,0.004C443.108,348.353,426.581,361,407,361h-30c-19.53,0-36.024-12.578-42.237-30
			c-26.955,0-95.585,0-156.526,0c-6.213,17.422-22.707,30-42.237,30h-31c-19.53,0-36.024-12.578-42.237-30c-0.095,0-0.441,0-0.507,0
			C37.458,327.55,16.073,315.78,0,299.169V422h512V299.475C496.246,315.885,475.511,327.496,451.854,330.854z"/>
	</g>
</g>
<g>
	<g>
		<path d="M136,301h-31c-8.276,0-15,6.724-15,15s6.724,15,15,15h31c8.276,0,15-6.724,15-15S144.276,301,136,301z"/>
	</g>
</g>
<g>
</g>
<g>
</g>
<g>
</g>
<g>
</g>
<g>
</g>
<g>
</g>
<g>
</g>
<g>
</g>
<g>
</g>
<g>
</g>
<g>
</g>
<g>
</g>
<g>
</g>
<g>
</g>
<g>
</g>
</svg>
