<svg fill="currentColor" viewBox="-53 0 511 512" xmlns="http://www.w3.org/2000/svg">
    <path d="m58.035156 304.355469c27.871094 7.039062 58.121094 2.832031 83.691406-14.207031l46.875-31.257813c31.890626-21.285156 71.414063-27.980469 108.605469-18.398437 8.527344 2.199218 16.589844 5.457031 24.386719 9.183593l-43.109375-86.222656v-73.453125c24.816406 0 45-20.1875 45-45s-20.183594-45-45-45h-150c-24.8125 0-45 20.1875-45 45s20.1875 45 45 45v73.453125zm0 0"/>
    <path d="m263.484375 332c-8.273437 0-15 6.722656-15 15s6.726563 15 15 15c8.277344 0 15-6.722656 15-15s-6.722656-15-15-15zm0 0"/>
    <path d="m143.484375 392c-8.273437 0-15 6.722656-15 15s6.726563 15 15 15c8.277344 0 15-6.722656 15-15s-6.722656-15-15-15zm0 0"/>
    <path d="m398.484375 403.453125-38.574219-77.148437c-19.273437-27.492188-33.199218-47.214844-70.203125-56.75-28.828125-7.441407-59.664062-2.226563-84.464843 14.296874l-46.875 31.257813c-23.027344 15.355469-49.058594 22.824219-74.882813 22.824219-13.242187 0-26.257813-2.652344-38.972656-6.53125l-36.027344 72.050781c-11.703125 23.425781-10.484375 50.699219 3.28125 72.980469 13.773437 22.265625 37.617187 35.566406 63.796875 35.566406h255.847656c26.179688 0 50.023438-13.300781 63.796875-35.566406 13.765625-22.28125 14.984375-49.554688 3.277344-72.980469zm-255 48.546875c-24.8125 0-45-20.1875-45-45s20.1875-45 45-45c24.816406 0 45 20.1875 45 45s-20.183594 45-45 45zm105 0h-30v-30h30zm15-60c-24.8125 0-45-20.1875-45-45s20.1875-45 45-45c24.816406 0 45 20.1875 45 45s-20.183594 45-45 45zm0 0"/>
</svg>